<svg version="1.1" id="Layer_1" xmlns="http://www.w3.org/2000/svg" xmlns:xlink="http://www.w3.org/1999/xlink" x="0px" y="0px"
	 width="100%" viewBox="0 0 736 736" enable-background="new 0 0 736 736" xml:space="preserve">
<path fill="#fff" opacity="1.000000" stroke="none" 
	d="
M408.103149,59.083092 
	C407.715027,54.052746 404.783966,51.913017 401.062134,54.103348 
	C393.110687,58.782833 386.613129,65.294609 380.196136,71.835052 
	C378.763550,73.295151 378.805847,75.072670 380.117981,77.034843 
	C386.634033,74.257904 393.369934,68.582191 399.392761,78.043335 
	C402.812714,76.488762 405.748474,74.398643 409.669250,74.577744 
	C414.058350,74.778244 416.700409,76.218460 416.652893,80.922417 
	C429.511200,77.275078 429.694946,77.329262 434.871490,86.124008 
	C437.342377,86.268150 439.110657,84.459267 441.252960,83.669670 
	C446.232147,81.834442 449.534576,82.638077 452.335876,87.142021 
	C453.559326,89.109100 454.704559,89.468102 456.784180,88.959267 
	C458.369537,88.571350 460.094055,88.699326 461.757141,88.690788 
	C469.131256,88.652931 469.814667,89.257004 470.474701,96.558327 
	C477.698639,95.834221 485.873016,92.973763 488.990967,103.391891 
	C495.632263,102.106277 501.617889,102.331627 507.269897,106.421761 
	C510.253723,108.581062 514.086243,106.844383 517.428101,105.984848 
	C526.627197,103.618866 535.821533,101.664749 545.448669,102.639648 
	C549.107544,103.010155 551.521912,104.395645 552.164673,108.029831 
	C552.790222,111.566620 551.355652,114.188965 548.013855,115.703568 
	C546.178650,116.535332 544.335388,117.184174 542.267517,117.200607 
	C538.512817,117.230446 535.185669,116.003754 535.131165,111.953651 
	C535.074890,107.777069 538.725647,107.518799 541.887085,107.374435 
	C543.760071,109.207458 540.510803,111.897705 543.372253,113.364708 
	C545.676697,113.147491 546.294373,111.375282 546.071472,109.504395 
	C545.809937,107.309380 544.045166,105.936668 542.022949,105.573082 
	C539.758423,105.165939 537.347290,105.043549 535.069763,105.337852 
	C527.762085,106.282143 520.576965,107.831429 512.847717,110.475830 
	C519.403809,117.686310 526.260254,122.652092 535.762207,123.555618 
	C530.797913,126.401314 525.777649,125.884506 520.814941,124.468216 
	C518.946411,123.934975 516.982605,122.942177 515.613525,121.597580 
	C511.091949,117.156784 505.550171,116.979179 499.807648,117.177841 
	C490.462891,117.501099 484.800812,126.892174 488.885101,135.346954 
	C492.319489,142.456451 500.048462,147.413712 506.728882,146.664490 
	C510.295319,146.264496 513.210693,144.894196 513.622437,140.760147 
	C513.822327,138.753418 514.495789,137.164627 516.717041,136.837509 
	C518.276062,136.607880 519.759583,136.852264 520.657349,138.345963 
	C521.777039,140.208939 521.010681,141.962646 519.969971,143.483673 
	C516.033081,149.237915 509.629120,150.249725 503.618347,150.492828 
	C496.687134,150.773163 490.275757,148.130386 485.180725,143.005966 
	C477.813904,135.596649 479.075043,123.167862 487.814850,117.483452 
	C492.331543,114.545776 497.314819,112.912277 503.555634,112.641930 
	C499.799500,108.348404 495.953369,106.330734 491.148712,105.791725 
	C488.197723,105.460655 488.079376,107.709427 487.261627,109.410080 
	C483.868073,116.467766 473.425018,120.527039 466.972137,117.421677 
	C465.289032,116.611717 464.144714,115.562904 464.099030,113.750504 
	C464.063904,112.356621 464.853729,111.259155 466.249115,110.680031 
	C467.952911,109.972870 469.718201,109.934875 470.835052,111.406647 
	C473.239838,114.575752 476.071869,115.267250 478.797241,112.428635 
	C481.267487,109.855782 482.804962,106.391556 480.490387,102.944031 
	C478.375732,99.794304 475.126404,98.267151 471.359222,99.902634 
	C468.334106,101.215958 465.340240,102.652771 462.832062,104.986687 
	C443.067963,123.377678 420.795593,137.955200 395.940765,148.515671 
	C393.311890,149.632645 390.556976,150.954544 387.221710,150.494919 
	C387.593079,147.422836 389.918762,147.289688 391.848083,146.545197 
	C413.534271,138.176941 432.353668,125.154297 450.153809,110.496811 
	C450.878326,109.900230 451.369171,109.019875 452.543427,107.554886 
	C441.466217,109.512436 432.436615,104.649994 422.878387,102.522545 
	C418.195404,101.480209 413.539032,100.297783 408.825714,99.419510 
	C405.705139,98.838028 403.276459,99.864311 401.012085,102.507347 
	C387.172150,118.661888 371.186829,132.433472 353.290039,143.907318 
	C350.438507,145.735474 347.415253,148.118134 343.469513,147.823822 
	C343.017639,144.965378 345.260406,144.521332 346.655426,143.735718 
	C367.407043,132.049088 384.004303,115.539749 399.865784,98.155785 
	C403.148743,94.557693 405.450073,90.290924 408.108215,86.273170 
	C409.168396,84.670731 410.309143,82.776405 409.001465,80.700089 
	C407.914001,78.973457 406.124207,79.169319 404.495483,79.410683 
	C402.254639,79.742775 400.535065,80.572311 400.116089,83.328415 
	C398.977020,90.820930 394.221710,95.265137 387.368622,97.918983 
	C385.821045,98.518303 384.437653,98.542122 383.026306,98.066605 
	C380.901581,97.350731 377.992401,97.004173 379.255280,93.561287 
	C380.353638,90.566887 382.611084,90.277634 385.362366,91.380318 
	C390.608612,93.482925 394.050201,90.969315 393.734955,85.361359 
	C393.593414,82.843864 392.627380,80.563469 390.290924,79.706749 
	C387.277588,78.601875 384.048431,78.465698 381.293762,80.719383 
	C378.417786,83.072365 376.371124,86.078331 374.457916,89.246399 
	C372.451233,92.569275 370.397461,96.025818 366.213684,97.005882 
	C364.707886,95.181030 365.918732,94.229706 366.803833,93.318192 
	C369.564636,90.474922 370.910217,86.898109 372.078064,83.247452 
	C372.871460,80.767319 373.496887,77.953491 369.846344,77.405510 
	C366.879059,76.960098 363.517914,76.862221 363.305847,81.347992 
	C363.026001,87.266731 360.015717,91.576530 355.583832,95.216454 
	C353.631622,96.819794 351.572266,97.403244 349.140472,97.322960 
	C346.754669,97.244186 344.499725,96.842171 344.922577,93.820854 
	C345.299011,91.131302 347.549713,89.274628 349.927277,90.456047 
	C354.421478,92.689255 356.066956,90.455788 357.258453,86.868286 
	C358.328369,83.646858 356.035095,78.939606 352.777527,77.815514 
	C349.171722,76.571281 347.075867,79.057388 345.525208,81.595360 
	C343.711456,84.563911 342.631042,87.974838 340.877899,90.987503 
	C338.394714,95.254692 335.184814,98.828819 329.799011,99.290657 
	C328.121399,99.434525 326.409210,99.297752 325.407135,97.581299 
	C324.478485,95.990715 325.208496,94.561691 326.244171,93.496902 
	C327.489441,92.216637 328.967438,90.782715 331.015198,92.160492 
	C333.017609,93.507759 334.965454,93.621979 336.036530,91.291412 
	C337.599121,87.891380 338.501434,84.262741 335.365234,81.154068 
	C333.420868,79.226776 331.164581,78.611717 328.609528,80.324707 
	C324.948975,82.778862 322.915833,86.485947 321.527435,90.362083 
	C313.628998,112.412697 302.928619,132.923080 288.591125,151.483109 
	C285.119080,155.977737 282.220703,160.820801 279.415314,165.740036 
	C278.303619,167.689377 277.459045,169.986343 274.061096,171.005219 
	C274.424347,166.847733 273.908447,163.073257 276.866699,159.896469 
	C288.552521,147.347366 294.320221,131.857025 298.708771,115.704292 
	C299.780853,111.758286 301.657593,107.885971 300.269379,103.060394 
	C295.632538,107.834099 290.666840,109.066978 285.122711,104.450813 
	C280.239838,108.509575 276.133972,116.408798 268.570099,110.665474 
	C262.225433,105.847916 265.565094,99.206802 267.789856,93.224915 
	C260.649261,94.607773 258.812164,96.624237 259.326385,103.545677 
	C259.647308,107.866264 257.080475,111.085014 255.773682,115.158989 
	C264.378296,120.499550 262.560394,128.863663 261.007446,136.574402 
	C258.080688,151.106232 251.246964,164.028442 242.779755,176.102753 
	C242.624466,176.324188 242.207275,176.361954 241.578735,176.625015 
	C239.865189,174.507507 241.232468,172.699799 242.225906,170.932877 
	C244.914276,166.151352 247.720154,161.435013 250.358154,156.626282 
	C254.326294,149.392868 256.671661,141.620926 257.575317,133.432449 
	C257.736481,131.972244 257.630981,130.413040 257.299866,128.980133 
	C255.843781,122.678688 252.460510,121.945244 245.309143,126.347908 
	C242.898102,124.798157 244.580948,123.182037 245.351151,121.714813 
	C247.158615,118.271545 250.123169,115.743225 252.689789,112.920662 
	C255.349426,109.995811 254.953247,106.865349 252.847366,104.332870 
	C250.988480,102.097389 248.496429,100.783882 244.924591,102.452919 
	C237.498932,105.922745 236.989365,106.458008 237.242416,114.562523 
	C237.380875,118.997025 238.183105,123.623718 235.427856,127.681061 
	C234.500839,129.046112 233.535629,130.407425 232.422058,131.617874 
	C231.075806,133.081284 229.343323,133.655716 227.439392,132.763351 
	C226.008270,132.092621 224.910690,130.938751 225.086914,129.267624 
	C225.319199,127.064690 226.673325,125.447311 228.868073,125.184181 
	C232.142517,124.791611 234.615265,123.759499 233.534042,119.929306 
	C232.519852,116.336540 231.047913,112.995598 226.210617,113.175194 
	C222.160294,113.325584 221.234924,115.866989 220.991577,119.124832 
	C220.563217,124.859390 222.289810,130.732071 219.440445,136.339157 
	C218.511276,138.167587 217.620987,139.869705 216.046997,141.125336 
	C214.355255,142.474884 212.593063,143.946335 210.195496,142.869125 
	C208.727417,142.209518 208.736298,140.773727 208.755951,139.423538 
	C208.794434,136.781219 210.554794,135.727982 212.766907,135.000763 
	C217.185074,133.548309 218.073059,130.693130 215.259308,126.887405 
	C213.617111,124.666267 211.586349,122.863434 208.558060,123.418282 
	C205.708069,123.940460 204.575455,126.217514 203.923126,128.739868 
	C202.607605,133.826721 203.594131,139.020248 203.290146,144.156326 
	C203.166977,146.237518 203.471573,148.476334 200.730865,150.018417 
	C198.966705,146.590469 200.161316,142.913986 198.828812,139.774368 
	C198.318756,138.572571 198.296219,137.173248 197.892853,135.914795 
	C197.111450,133.476974 195.994156,130.460159 192.932663,131.787598 
	C190.145554,132.996048 187.549469,135.600693 189.126953,139.375793 
	C197.766907,160.051895 200.285919,181.692581 199.069870,203.838531 
	C198.634674,211.764313 197.224442,219.637253 196.233032,227.531036 
	C196.067307,228.850647 195.829361,230.192078 192.994690,231.116043 
	C195.131683,205.868469 198.367630,180.913559 189.733444,155.118607 
	C189.233398,158.978073 188.411423,161.211319 186.971375,163.254608 
	C182.563568,169.508835 175.216583,169.626434 170.858856,163.406677 
	C167.246109,158.250229 168.038361,147.515106 172.250626,142.778137 
	C174.047791,140.757126 176.140091,140.295563 178.548431,141.043442 
	C179.974838,141.486404 180.836258,142.843048 180.489838,144.171219 
	C179.921219,146.351318 179.353165,148.655960 176.078857,148.598190 
	C173.948853,148.560593 172.156677,149.971497 172.242981,152.380402 
	C172.374741,156.058884 174.629501,158.667831 177.695786,160.200745 
	C180.083221,161.394287 182.624680,160.737091 184.411743,158.488251 
	C186.992538,155.240601 187.214508,151.457321 186.694733,147.560028 
	C186.169739,143.623474 180.204987,128.697647 177.344666,124.228409 
	C176.604248,128.492889 174.419617,131.384995 170.374954,133.162933 
	C168.536911,131.814850 166.527344,130.392761 164.576706,128.893982 
	C163.006119,127.687225 160.991852,126.498497 162.221954,124.066208 
	C163.430603,121.676353 165.401489,123.911400 167.005295,123.702950 
	C166.639999,120.899582 163.543808,117.045586 167.581406,115.949699 
	C170.955490,115.033897 170.731766,119.708923 171.760803,122.131058 
	C178.780121,115.180557 172.177063,107.915581 172.058319,100.836327 
	C171.969208,95.524734 171.742249,90.201714 171.866501,84.882713 
	C171.899780,83.458305 172.057983,81.838043 175.121445,81.047028 
	C174.004120,98.841049 178.681366,115.125076 186.120483,130.779556 
	C188.755508,130.460434 189.116318,128.130234 190.360397,126.726006 
	C192.511871,124.297562 194.470215,121.771278 198.292419,124.144089 
	C200.445160,125.480507 201.530121,123.743027 202.578125,122.095085 
	C207.033981,115.088562 209.320023,114.314926 216.818619,117.206009 
	C218.635651,115.843025 218.779312,113.503014 219.773529,111.657684 
	C222.920532,105.816635 224.688660,104.688431 231.220276,106.167542 
	C234.275696,106.859451 234.931427,104.964119 236.163025,103.227005 
	C241.377045,95.872955 247.967224,93.459618 256.197632,96.010735 
	C262.834412,86.681648 273.343750,84.921318 283.608429,82.858360 
	C292.707581,81.029648 301.826263,79.482140 310.307861,75.384224 
	C315.702942,72.777580 320.983459,73.939758 325.006104,78.055779 
	C335.348816,71.493454 335.348816,71.493454 343.445679,78.054512 
	C346.171478,75.525475 348.755554,72.593704 352.439331,71.369728 
	C356.874786,69.895973 359.618744,72.816170 362.432098,75.907784 
	C366.476868,73.213943 370.590912,70.966888 375.570984,70.610970 
	C377.897339,70.444702 379.528687,68.314362 381.206207,66.694748 
	C386.238037,61.836681 391.310272,57.033371 397.110352,53.061104 
	C399.193939,51.634132 401.385254,50.553127 403.758820,49.696880 
	C407.301270,48.418938 410.561890,48.593357 412.533203,52.014427 
	C414.492004,55.413879 413.641876,58.950840 410.909180,61.620308 
	C408.261688,64.206551 405.142639,66.469002 401.113983,64.666252 
	C399.657715,64.014603 398.036530,62.791199 398.281006,60.886833 
	C398.644165,58.058342 400.831390,56.881977 402.070953,56.486423 
	C405.737427,56.079094 402.881042,63.579239 408.103149,59.083092 
M306.341675,98.477287 
	C305.240295,108.324852 302.943909,117.899208 299.688110,127.284180 
	C306.464539,114.330482 313.805481,101.672195 317.643097,87.450157 
	C318.380768,84.716331 319.367462,81.652298 315.478027,80.401024 
	C312.850494,79.555717 307.663116,83.323090 307.360901,86.173332 
	C306.958740,89.965897 306.701477,93.773819 306.341675,98.477287 
M275.274384,90.559937 
	C273.462311,91.314735 272.428162,92.841942 271.590485,94.476654 
	C270.164154,97.260033 269.378571,100.131554 271.623016,102.889343 
	C273.039246,104.629486 274.913940,106.202248 277.185150,105.409149 
	C280.092346,104.393951 282.205994,102.261040 282.891022,99.010567 
	C283.593109,95.679413 284.395508,92.369400 285.202667,88.837257 
	C281.794006,89.044495 278.842285,89.304138 275.274384,90.559937 
M419.478027,84.035385 
	C415.669434,86.754295 411.335114,88.965256 409.565674,93.893089 
	C412.632935,95.744438 415.992706,94.929596 418.879303,96.076683 
	C421.288391,97.034012 423.616364,97.049103 425.034790,94.692528 
	C426.344391,92.516754 428.406281,90.212410 426.911987,87.397240 
	C425.538422,84.809555 423.542511,82.821152 419.478027,84.035385 
M289.363556,90.254860 
	C289.317261,91.894218 289.137543,93.543129 289.254211,95.170815 
	C289.457886,98.013176 291.382965,99.702744 293.858215,100.393852 
	C296.202576,101.048424 298.189331,99.502556 299.264618,97.671036 
	C301.508881,93.848480 303.193604,89.752144 302.204834,84.443153 
	C297.668335,85.849297 292.788208,85.232704 289.363556,90.254860 
M445.290405,90.289368 
	C439.957916,86.148216 434.009430,88.983757 429.118103,98.017754 
	C431.069885,98.820503 432.971741,99.781807 434.980804,100.387650 
	C438.104797,101.329681 441.264069,101.534233 443.932648,99.136070 
	C446.491028,96.836922 446.640076,93.970741 445.290405,90.289368 
M448.580627,100.536102 
	C447.419006,101.534485 446.525787,102.728943 448.802185,103.193367 
	C452.765869,104.002014 456.706940,103.480110 459.917969,100.955376 
	C461.689087,99.562775 463.093628,97.271675 462.425049,94.839409 
	C461.749084,92.380478 459.074280,93.333130 457.322052,92.697739 
	C454.854156,91.802856 453.358002,92.792458 452.286713,95.176567 
	C451.493896,96.940971 450.130035,98.448807 448.580627,100.536102 
z"/>
<path fill="#fff" opacity="1.000000" stroke="none" 
	d="
M639.238892,333.150146 
	C612.915161,326.807678 590.893494,313.514648 571.157959,296.056915 
	C574.291321,295.640564 576.557800,297.133240 578.742493,298.775574 
	C592.213379,308.902039 606.141602,318.244171 622.297241,323.641113 
	C626.825928,325.153931 631.364380,326.730682 636.844788,327.438293 
	C633.196594,322.549377 630.989502,317.786133 635.202698,312.528503 
	C636.091370,311.419525 635.292114,310.351440 634.421936,309.458679 
	C633.493225,308.505890 632.501526,307.584167 631.737305,306.506989 
	C629.328979,303.112396 627.603699,299.432892 630.277466,295.500519 
	C632.785400,291.812012 636.542358,290.635101 640.826233,291.848358 
	C643.169312,292.511932 645.391724,293.601593 647.684631,294.505463 
	C648.738770,290.147186 645.670166,285.516144 641.458740,285.420654 
	C637.250671,285.325226 633.159668,285.316406 629.611816,282.583191 
	C628.164368,281.468109 627.045959,282.034973 625.739868,283.266937 
	C620.717590,288.003937 614.859802,288.066681 608.634277,286.046814 
	C595.890747,281.912170 584.111511,275.907623 573.363098,267.931152 
	C571.102478,266.253571 568.241943,264.958160 567.362061,261.552765 
	C570.338562,260.385010 572.131653,262.426361 573.715820,263.707520 
	C584.189453,272.178223 595.808960,278.287689 608.775085,282.000671 
	C612.640381,283.107513 615.759460,281.892822 618.520935,279.839966 
	C620.620667,278.278992 621.349670,275.748932 619.344849,273.229218 
	C618.557617,272.239807 617.362183,271.272797 618.600952,269.416870 
	C621.239075,269.566498 623.255310,271.040619 625.072571,272.999390 
	C626.885010,274.952942 628.767883,276.841064 630.618042,278.759583 
	C632.703430,280.922089 635.214478,281.566864 637.893738,280.253510 
	C640.688477,278.883545 641.951843,276.450470 641.760986,273.281616 
	C641.329163,266.112335 636.803345,262.323456 629.725220,263.133789 
	C623.300903,263.869293 617.909851,261.635193 613.703735,256.849030 
	C612.327148,255.282516 611.242126,253.174225 612.619934,250.902924 
	C613.434937,249.559494 614.734375,249.454086 616.140564,249.696060 
	C618.815796,250.156433 619.677124,252.035568 619.605591,254.406403 
	C619.524231,257.103485 620.760620,258.519196 623.356079,258.660522 
	C627.773926,258.901062 630.566345,256.510651 632.230286,252.684464 
	C633.308594,250.204895 631.924255,248.626953 629.912720,247.322983 
	C626.958923,245.408264 623.704163,244.994934 620.330627,245.314102 
	C615.228821,245.796799 610.909241,243.863754 606.768494,241.224289 
	C605.307434,240.292999 604.310669,239.024475 603.610596,237.462646 
	C602.968079,236.029266 602.508301,234.607544 603.757568,233.287155 
	C604.853760,232.128510 606.202271,231.528107 607.817810,231.996323 
	C609.437805,232.465820 610.508423,233.663055 610.415344,235.274338 
	C610.194458,239.096771 611.804260,240.892761 615.637268,240.787720 
	C619.973328,240.668900 622.519348,237.972748 623.452698,234.280426 
	C624.401306,230.527313 621.099609,229.162430 618.270935,228.047058 
	C614.759705,226.662537 611.020386,227.247452 607.386963,227.236404 
	C603.763367,227.225388 600.653687,226.059982 597.611084,224.290512 
	C598.395386,221.988632 600.164551,222.822510 601.473511,222.792862 
	C604.972046,222.713562 608.493286,222.899979 611.850098,221.674988 
	C613.995117,220.892181 617.052551,220.212036 616.143188,217.258743 
	C615.270508,214.424744 612.981323,211.921692 609.386536,212.583847 
	C605.154114,213.363495 600.994812,214.537582 596.800598,215.527237 
	C581.794373,219.068085 566.793945,219.697037 551.377747,217.716919 
	C541.496826,216.447784 531.749878,214.517609 521.896118,213.208694 
	C519.920288,212.946259 517.935608,212.636246 516.973450,208.937073 
	C541.995483,213.552277 566.545410,218.196075 592.087158,212.303391 
	C590.313049,211.310150 589.033630,210.494553 587.673096,209.850433 
	C583.239319,207.751404 581.165039,204.385162 581.750366,199.424606 
	C582.305664,194.718750 585.582092,192.623383 589.544678,191.294220 
	C595.422119,189.322739 604.689819,191.886810 607.900940,196.169250 
	C609.093262,197.759277 609.658630,199.432709 608.787842,201.278900 
	C608.075684,202.788712 606.692566,203.340851 605.051086,203.233871 
	C602.911438,203.094421 601.651428,201.809677 601.256531,199.857040 
	C600.663879,196.926590 600.115906,194.064529 596.127563,194.600006 
	C591.977722,195.157166 589.119019,197.708679 588.939270,201.714005 
	C588.784363,205.166122 590.876038,207.904251 594.753418,208.795883 
	C598.397278,209.633804 601.916321,209.903152 605.556335,208.711090 
	C611.845947,206.651337 618.197388,204.780365 624.752625,202.306244 
	C619.523132,202.148743 619.214417,197.308548 616.405151,194.534149 
	C617.939819,192.811722 619.450623,191.115158 620.962585,189.419586 
	C622.293762,187.926727 623.599976,186.022675 625.935730,187.141190 
	C628.302368,188.274490 626.234619,190.324615 626.444580,191.942459 
	C628.967773,191.719421 632.037903,188.872299 633.606506,192.254501 
	C635.134827,195.549850 630.880554,195.544800 629.183838,197.045685 
	C631.575378,200.630814 634.201538,200.679489 638.212341,199.816315 
	C647.001648,197.924759 656.046936,197.990402 664.947449,199.811249 
	C666.096191,200.046249 667.607300,200.308441 668.452698,203.345642 
	C650.547546,200.912109 633.777832,204.202072 617.082275,210.248566 
	C619.770325,214.866714 627.450378,218.344467 620.919861,225.115616 
	C631.020325,231.158066 632.037842,233.334244 628.785583,242.215851 
	C635.829346,245.787979 642.662598,249.749115 637.772339,259.410492 
	C638.463867,261.145966 640.035278,261.586090 641.178101,262.463684 
	C646.521362,266.566864 649.259644,272.083344 648.034546,278.576660 
	C647.306702,282.434662 648.510132,284.916412 650.552063,287.570129 
	C654.878540,293.192810 656.515808,299.907806 657.122437,306.652313 
	C658.091858,317.429596 660.924316,327.891510 662.166809,338.492798 
	C662.960083,345.261749 664.495483,352.202026 663.792908,359.355591 
	C662.838318,369.076324 662.851929,378.939972 663.183228,388.717468 
	C663.331787,393.102448 662.663330,397.265930 662.192322,401.514038 
	C661.856689,404.540619 659.492249,405.399780 656.582458,405.807159 
	C658.348938,412.640442 663.433533,420.052124 652.513916,424.237732 
	C655.489624,431.367432 659.876526,438.873962 649.767517,443.612854 
	C652.947754,456.155182 652.254456,458.210022 644.123230,461.037109 
	C645.518188,474.386658 644.953613,476.180969 637.860107,479.987457 
	C639.929932,486.575500 638.335571,492.562225 635.023560,498.702423 
	C633.397583,501.716919 635.824951,505.721954 636.871033,509.189087 
	C639.420166,517.637573 641.846680,526.084900 641.369019,535.085266 
	C641.167664,538.879395 640.382263,542.191772 636.251038,543.183289 
	C631.960144,544.213074 629.236450,541.967651 627.719727,538.108398 
	C626.168152,534.160278 625.752991,530.240051 629.368408,527.145386 
	C630.338501,526.315002 631.776367,524.978516 633.344910,526.453796 
	C635.460999,528.444031 637.249695,530.590637 636.192688,533.669128 
	C634.442383,535.391541 632.586914,532.351318 630.762512,534.319580 
	C630.405945,536.841370 632.513733,537.015076 634.191895,537.051941 
	C636.751953,537.108337 638.165405,535.348572 638.492371,533.006653 
	C639.003784,529.343018 638.377502,525.855652 637.162109,522.265869 
	C635.163757,516.363770 633.870422,510.222931 631.994873,503.100525 
	C624.718872,510.268738 619.932129,517.457642 620.505188,527.606567 
	C616.868164,524.211609 616.219910,520.241699 617.204590,515.974121 
	C618.256653,511.414246 620.476990,507.345062 622.695007,503.216705 
	C626.050354,496.971649 626.169312,490.513916 621.793884,484.465363 
	C617.980042,479.193085 611.247742,477.763885 605.457825,480.979034 
	C598.893616,484.624146 594.508667,492.412659 595.300293,499.075775 
	C595.711243,502.534088 597.265137,505.053192 600.979736,505.685211 
	C603.017883,506.032013 604.953369,506.473419 605.297302,509.024811 
	C605.515076,510.640594 605.276489,512.138428 603.673645,512.849243 
	C601.469849,513.826599 599.380432,513.332336 597.721191,511.616791 
	C591.146790,504.819336 590.545715,496.618896 592.427124,487.948395 
	C594.014038,480.634827 597.865173,474.922577 605.368286,472.851135 
	C617.587952,469.477600 624.681519,478.010315 627.170593,486.487885 
	C627.861145,488.839783 628.363953,491.246826 629.085632,494.165314 
	C632.377991,491.709534 633.803894,488.750397 634.536316,485.536499 
	C635.276978,482.286591 634.738464,479.706085 631.213501,477.675354 
	C623.548279,473.259460 619.981445,464.139587 622.701416,457.786163 
	C623.502319,455.915405 624.622620,454.494537 626.800659,455.033630 
	C628.689148,455.501129 629.941284,456.848633 630.120178,458.929749 
	C630.228333,460.186951 629.698120,461.309998 628.847534,462.081421 
	C626.771057,463.964508 625.505127,465.926819 627.675110,468.471863 
	C629.666565,470.807434 632.257996,472.695099 635.328369,471.937134 
	C638.519775,471.149353 640.968323,469.016724 640.714783,465.113220 
	C640.302002,458.758484 636.165588,454.332153 632.055603,450.401489 
	C622.164673,440.942047 613.490173,430.484436 605.666504,419.362762 
	C598.035706,408.515198 590.935425,397.270569 586.084412,384.804199 
	C585.332825,382.872711 585.366760,382.859497 586.486511,379.793915 
	C597.928711,403.122314 612.223206,424.382538 631.390564,443.158661 
	C629.900513,426.774994 637.530396,412.330414 637.530518,396.767731 
	C637.530518,394.815491 636.708801,393.690887 635.319641,392.625427 
	C618.046936,379.378082 603.525146,363.437561 590.027771,346.475616 
	C587.755310,343.619904 584.996155,341.156189 582.555786,338.427307 
	C581.531860,337.282349 579.783020,336.262390 581.220703,333.863037 
	C584.391663,335.627594 588.009033,336.255981 590.398010,339.651672 
	C598.841980,351.653778 609.842590,360.912994 622.227417,368.651062 
	C627.855103,372.167175 633.587646,375.426056 640.638916,377.937927 
	C637.248291,371.959839 634.880432,366.260406 642.037659,362.141663 
	C639.852234,356.215576 632.586670,350.688354 639.851929,344.637085 
	C646.123474,339.413513 651.975098,344.017303 657.350769,347.829346 
	C658.181274,340.577820 655.234436,336.467651 648.419128,334.996552 
	C645.503967,334.367310 642.732849,333.061188 639.238892,333.150146 
M649.621338,396.931305 
	C652.352783,398.032990 655.718323,401.045593 657.283386,396.171936 
	C658.282043,393.062286 657.479919,389.264526 653.583069,387.962555 
	C641.543701,383.939850 630.050049,378.785736 619.200073,372.093079 
	C627.992371,381.693451 637.770081,390.011688 649.621338,396.931305 
M647.473999,298.909668 
	C646.733276,298.541626 646.023071,298.083466 645.246704,297.820709 
	C641.242737,296.465729 637.709839,297.296570 636.204712,301.374359 
	C634.721252,305.393555 637.187195,307.901489 640.925659,309.164276 
	C644.287598,310.299866 647.683228,311.335663 651.108459,312.429688 
	C652.358521,305.557281 651.850830,303.460022 647.473999,298.909668 
M644.184937,351.626862 
	C642.518921,358.121338 644.936279,360.630615 657.297180,365.029785 
	C657.886841,359.859009 660.443542,354.454559 654.625000,350.587158 
	C651.303162,348.379242 647.846252,347.996002 644.184937,351.626862 
M651.714661,367.801392 
	C648.495117,366.636444 646.322632,368.261566 644.473877,370.591095 
	C643.064331,372.367279 643.132690,374.316223 644.362976,376.112091 
	C647.322876,380.432556 651.568176,382.388245 656.593567,383.068481 
	C658.754517,374.326416 657.926697,371.593262 651.714661,367.801392 
M639.087769,433.290741 
	C642.070679,435.833923 645.047485,438.513123 648.896118,434.635864 
	C651.705383,431.805634 651.208984,428.556488 647.066345,424.365509 
	C644.926331,422.200470 642.476318,420.341919 639.516663,417.783264 
	C640.036926,423.391724 635.148865,427.670929 639.087769,433.290741 
M641.360291,406.784424 
	C641.385376,408.437195 641.172363,410.136322 641.483276,411.733429 
	C642.208679,415.459625 646.187195,417.783112 649.902039,416.588440 
	C652.855164,415.638733 655.127625,413.509949 653.866333,410.273102 
	C651.921021,405.280945 648.391174,401.513245 643.218689,399.412842 
	C641.733887,401.675507 641.945129,403.910858 641.360291,406.784424 
M640.148254,324.347229 
	C643.698364,328.925751 648.909729,329.360626 654.338379,330.702820 
	C654.287292,326.805023 654.122803,323.679871 653.069946,320.742340 
	C651.804504,317.211914 648.721069,315.159027 645.361450,315.944489 
	C641.930054,316.746765 638.349121,318.794525 640.148254,324.347229 
M642.920227,452.578705 
	C645.024536,452.826996 646.791626,452.234436 646.610352,449.837250 
	C646.435181,447.521393 648.495300,444.157867 645.776123,443.068451 
	C642.092346,441.592682 639.374878,438.846680 635.546265,436.427399 
	C635.258789,443.392029 636.581604,448.783020 642.920227,452.578705 
z"/>
<path fill="#fff" opacity="1.000000" stroke="none" 
	d="
M195.280487,464.745728 
	C194.689575,469.091736 197.068039,472.571320 197.140015,477.042267 
	C190.280853,477.439117 183.776184,477.528412 176.885162,477.008911 
	C180.484467,458.628448 178.328720,440.668488 178.715302,422.785126 
	C179.085999,405.636871 178.624771,388.471924 178.861084,371.318909 
	C178.993118,361.736359 175.632401,354.203278 167.805389,348.642517 
	C166.787933,347.919678 165.576889,347.127106 165.685181,345.545044 
	C177.227448,342.277832 185.103516,344.758392 192.488861,354.102966 
	C196.920044,351.593323 200.595230,347.844360 205.363785,345.786530 
	C216.654755,340.914032 228.097168,338.664062 240.245087,342.549255 
	C252.953751,346.613739 260.182251,360.261078 256.697113,373.118896 
	C252.133469,389.955688 240.092667,399.757355 225.611404,407.495087 
	C221.686386,409.592316 217.814819,411.789581 213.502151,414.170959 
	C216.719254,418.481201 221.171448,420.836548 224.705261,424.157837 
	C235.988861,434.762939 245.133728,447.360901 256.414124,457.931641 
	C263.601654,464.666992 272.048035,469.677002 280.909576,473.892944 
	C284.795135,475.741516 286.593201,474.590363 286.625732,470.189209 
	C286.756256,452.535492 286.812378,434.878571 286.598206,417.226440 
	C286.531128,411.699158 283.713440,407.433167 278.400421,405.154877 
	C277.506378,404.771515 276.492371,404.451385 276.518372,402.808990 
	C279.217926,400.987579 282.478333,402.286072 285.295624,402.296051 
	C289.079803,402.309479 292.879578,402.829498 296.690613,402.282013 
	C299.439453,401.887115 300.540894,402.874329 300.515564,405.851837 
	C300.356964,424.505249 300.333496,443.160156 300.346100,461.814484 
	C300.349457,466.773743 300.564362,471.745392 303.100006,476.103638 
	C301.796722,477.839752 300.180176,477.291046 298.781403,477.295013 
	C284.457031,477.335754 270.131927,477.251892 255.808487,477.374146 
	C252.723129,477.400452 250.593460,476.536285 248.555420,474.075562 
	C236.679626,459.736481 225.208603,445.049988 212.426941,431.476837 
	C208.880142,427.710480 205.280624,424.018524 200.860489,421.255707 
	C196.599030,418.592010 195.309372,419.239563 195.284592,424.302917 
	C195.219391,437.627502 195.270599,450.952637 195.280487,464.745728 
M195.268921,406.035828 
	C195.438889,407.455078 194.806915,409.080414 196.633301,410.417511 
	C200.000229,409.293793 203.544617,408.013458 207.147079,406.925415 
	C222.689423,402.231049 234.696777,393.299042 239.823990,377.449890 
	C243.155136,367.152740 239.846497,355.858490 228.715439,351.914581 
	C221.899323,349.499542 214.532974,349.960144 207.629242,352.116608 
	C199.597961,354.625305 194.655640,360.741974 195.122849,370.160370 
	C195.699966,381.794189 195.265701,393.478149 195.268921,406.035828 
z"/>
<path fill="#fff" opacity="1.000000" stroke="none" 
	d="
M152.417328,425.637726 
	C153.095901,427.632233 152.216537,428.355530 150.845856,427.648804 
	C149.102875,426.750092 147.431274,425.535919 146.050232,424.139893 
	C133.802444,411.759247 119.820992,401.752777 104.765457,393.069153 
	C100.486031,390.600922 95.250557,390.944122 91.102905,387.446960 
	C92.572739,393.780853 96.957497,400.168976 89.398293,405.494629 
	C93.592140,410.398834 96.163574,416.017639 96.818321,421.854462 
	C98.220764,434.356750 102.086685,446.247253 105.729553,458.955811 
	C100.295677,458.367004 96.240219,456.095337 91.751961,456.709625 
	C84.667503,457.679199 84.618309,457.701416 87.441719,464.099457 
	C87.773125,464.850403 88.220207,465.604004 87.270584,466.698914 
	C82.582825,466.142731 80.844315,462.434631 79.252495,458.625244 
	C77.895332,455.377502 79.491089,453.202759 82.194740,451.845520 
	C81.841492,449.092499 79.942093,448.367523 78.264313,447.334961 
	C68.930992,441.590942 59.630619,435.787445 51.273399,428.639160 
	C48.852089,426.568115 46.878597,424.070587 45.568092,421.149780 
	C44.578793,418.944916 44.168728,416.579193 45.886353,414.541931 
	C47.711937,412.376648 50.131214,411.285553 53.009552,411.842102 
	C56.255142,412.469635 58.927425,414.174072 60.736977,416.931549 
	C62.404495,419.472534 63.286629,422.669312 60.415230,424.521820 
	C57.403526,426.464844 54.425861,425.346741 52.900486,422.149292 
	C53.043476,419.354370 56.297436,421.375763 56.544437,418.741760 
	C55.753674,416.546814 53.838024,417.155487 52.225365,417.876404 
	C50.416039,418.685211 50.125389,420.368011 50.842945,422.125000 
	C51.738071,424.316833 53.034473,426.346497 54.925987,427.726929 
	C61.362041,432.423859 67.909401,436.968231 75.318459,442.210663 
	C75.285118,437.606140 77.122330,435.085022 79.256721,432.590942 
	C75.128006,428.126587 67.949425,424.701080 72.219162,417.331787 
	C76.123245,410.593597 82.652191,412.566772 90.054947,415.369537 
	C87.833870,410.822327 87.139915,407.532837 82.444267,406.658813 
	C74.747543,405.226166 68.848289,399.251801 67.857864,392.756317 
	C67.546013,390.711090 67.602203,388.666809 69.540237,387.367401 
	C70.908821,386.449829 72.484100,386.511017 73.703979,387.630798 
	C75.332420,389.125549 75.868408,391.221191 74.867401,393.116608 
	C73.257935,396.164154 74.126007,398.224243 76.834114,399.778046 
	C79.799240,401.479279 82.500641,400.886627 85.082596,398.727539 
	C87.571754,396.646088 88.448715,394.172211 87.191978,391.193787 
	C85.601746,387.424988 82.487808,384.923553 78.796570,383.806030 
	C68.682365,380.743927 58.311905,378.496490 48.278564,375.207581 
	C37.179165,371.569183 26.900385,366.187408 18.559639,357.702057 
	C17.976418,357.108734 17.484232,356.409668 18.669298,354.302460 
	C32.892902,365.714935 49.366859,371.914368 67.400902,375.257782 
	C67.108528,370.413452 64.987457,365.836853 69.017639,362.103271 
	C69.330605,361.813324 69.218704,360.763306 68.972359,360.215942 
	C64.648438,350.608551 67.939743,341.157898 69.966171,331.860443 
	C71.034645,326.958160 69.167877,321.822693 71.657112,317.221985 
	C74.066696,312.768494 75.583954,308.291443 73.913231,303.130676 
	C73.582321,302.108521 74.199753,300.099182 75.052841,299.494476 
	C78.323250,297.176239 78.169991,294.095459 77.740410,290.758026 
	C77.027565,285.219910 79.368011,282.137299 85.148346,282.258362 
	C85.810638,279.351837 84.465080,277.077850 84.152786,274.670685 
	C83.656395,270.844391 83.944992,267.126526 87.608627,264.995636 
	C90.692451,263.201996 90.913429,260.956512 90.282249,257.839569 
	C88.869019,250.860611 92.051262,246.863144 98.681046,247.136841 
	C98.681046,244.556396 98.759476,241.970444 98.663605,239.390976 
	C98.498703,234.954193 100.032684,231.474762 104.320244,229.819153 
	C106.814400,228.856079 106.827576,227.033020 106.751381,224.975800 
	C106.584274,220.463287 107.918228,216.291855 110.674667,212.872269 
	C112.967201,210.028183 113.193909,206.972366 112.420097,203.941284 
	C110.559196,196.651993 110.544327,189.108337 108.965530,181.799011 
	C108.377022,179.074402 109.484245,176.522095 109.798912,173.900101 
	C110.368889,169.150589 113.758499,165.712524 117.246651,165.886261 
	C120.721611,166.059326 124.826569,171.102585 124.819939,175.270020 
	C124.818642,176.089066 124.638733,176.933517 124.396751,177.721924 
	C123.488289,180.681808 122.375763,183.913864 118.491089,183.105652 
	C114.434433,182.261688 114.315041,179.026810 115.078659,175.771347 
	C117.187782,174.534027 117.951775,177.564423 119.910950,176.809418 
	C121.433426,175.332275 120.915688,173.819458 119.300316,172.833771 
	C117.256775,171.586823 115.188431,172.476288 114.032433,174.193420 
	C112.957504,175.790131 111.825470,177.995529 112.081627,179.731888 
	C113.352905,188.349289 112.904381,197.274155 116.324799,206.107666 
	C123.419746,199.877426 129.539444,193.660706 129.214432,182.391602 
	C133.521942,187.001343 132.524475,191.012436 131.818954,194.673050 
	C130.955811,199.151489 128.184280,202.789764 125.462997,206.417191 
	C121.185799,212.118683 119.671127,218.356735 122.952095,225.114914 
	C126.334000,232.080978 133.677704,234.515259 140.616333,231.102859 
	C145.847321,228.530273 149.132706,224.207291 151.139816,218.955948 
	C153.051468,213.954315 150.793289,209.020828 145.932404,207.394958 
	C143.901337,206.715591 142.813538,205.622192 142.430054,203.672394 
	C142.091446,201.950684 143.094269,200.824295 144.351761,199.903992 
	C146.329666,198.456497 147.865356,199.917847 149.317520,200.887085 
	C153.502197,203.680115 154.228668,208.261047 154.858154,212.698776 
	C156.192764,222.107407 153.623001,230.123260 145.882370,236.133759 
	C140.736588,240.129425 134.932755,241.507690 129.083466,238.717941 
	C123.043365,235.837189 119.705795,230.445190 118.694054,223.745911 
	C118.327438,221.318375 117.929184,218.895599 117.468758,215.986572 
	C112.810509,218.770844 111.150414,222.674652 110.675232,227.294571 
	C110.470589,229.284256 111.842804,230.058731 113.231529,231.132980 
	C120.346001,236.636383 122.915627,245.358765 119.532204,251.736588 
	C118.755318,253.201035 118.191528,254.997162 116.166389,254.969345 
	C114.499832,254.946457 113.502289,253.649841 112.912315,252.236526 
	C112.227249,250.595444 112.265114,248.843185 113.726212,247.641586 
	C115.961563,245.803223 117.713196,243.787170 116.040428,240.845963 
	C114.275787,237.743210 111.261185,236.928207 107.863342,237.284988 
	C103.983505,237.692383 101.896210,240.931076 102.615402,245.309204 
	C103.665154,251.699600 107.771255,256.420563 111.562355,261.204407 
	C125.629799,278.955566 136.165649,298.653778 144.339798,319.686615 
	C147.516312,327.860046 147.819962,329.723877 146.175125,333.622711 
	C137.824310,309.445496 126.043549,287.184875 109.862671,267.047394 
	C110.857544,275.894043 105.212265,282.575897 103.137344,290.323090 
	C101.994087,294.591736 103.040649,297.584656 105.914940,300.656342 
	C120.440193,316.179199 132.402481,333.503357 141.781891,352.589020 
	C142.953003,354.972046 143.877151,357.479706 144.835312,359.960663 
	C144.979156,360.333130 144.679993,360.876678 144.536804,361.582397 
	C141.583847,361.600555 141.197037,359.078186 140.399017,357.366699 
	C134.541153,344.804016 127.479858,332.970886 118.737022,322.224854 
	C110.048515,311.545593 101.779190,300.410645 90.413811,292.273651 
	C88.375450,290.814301 85.876488,287.491882 83.306480,291.238647 
	C81.032753,294.553497 82.426384,297.569580 85.659172,299.740326 
	C107.767929,314.585846 122.897568,335.514404 136.318207,357.922516 
	C137.141312,359.296844 138.185028,360.713928 137.430099,362.587677 
	C135.064392,363.576996 134.604828,361.527283 133.852997,360.251404 
	C125.030945,345.280487 114.899727,331.324249 102.531616,319.036896 
	C100.565117,317.083221 98.941841,316.269379 96.011322,316.988281 
	C91.361893,318.128784 86.525581,318.540131 81.752052,319.127747 
	C79.509171,319.403900 77.166168,319.569214 76.829422,322.330231 
	C76.510780,324.942719 77.413071,327.211029 79.931793,328.602356 
	C86.607574,332.289856 93.640770,335.259613 100.004028,339.597839 
	C115.037422,349.846985 127.194824,362.947327 138.259537,377.179932 
	C140.893723,380.568298 144.316833,383.435211 145.662888,387.723053 
	C145.837891,388.280518 145.686890,388.940277 145.083221,390.071014 
	C129.221619,371.094269 114.319542,351.175110 90.974045,339.742035 
	C92.593178,345.584625 96.415901,351.869598 90.063210,355.981689 
	C83.445099,360.265564 77.871124,355.800293 72.944809,351.090576 
	C71.364914,357.486816 73.216003,360.979187 78.640083,363.637268 
	C82.341797,365.451294 86.295296,366.969788 89.364746,369.866150 
	C90.685616,371.112579 92.860992,372.185974 91.281464,375.151306 
	C88.324715,373.687744 85.430794,372.244202 82.525833,370.823212 
	C81.486191,370.314697 80.443283,369.524963 79.361092,369.449646 
	C76.906441,369.278839 73.367775,367.652130 72.660103,371.390625 
	C72.066643,374.525818 73.370209,377.756500 77.288322,378.549927 
	C88.141426,380.747620 98.115555,385.164642 107.778313,390.419861 
	C124.570763,399.552734 139.174652,411.460022 152.417328,425.637726 
M77.703201,349.791718 
	C80.242462,351.488098 82.791534,352.162811 85.395645,349.906372 
	C87.046768,348.475677 88.632568,347.001343 88.214615,344.516296 
	C87.325806,339.231720 82.284088,334.735962 75.670624,333.664429 
	C74.904121,339.047211 71.358429,344.485443 77.703201,349.791718 
M96.801956,271.338318 
	C90.906975,270.893799 88.340652,272.742279 88.828804,277.661652 
	C89.371109,283.126770 92.063522,287.421082 97.309799,290.465820 
	C98.605118,286.454559 99.774841,282.885132 100.909180,279.304535 
	C102.031441,275.762054 100.925224,273.171875 96.801956,271.338318 
M93.646820,451.512604 
	C94.844093,451.826050 95.947754,453.098297 97.680634,451.557251 
	C97.225266,447.679382 96.093300,443.802673 94.039474,440.146606 
	C92.703140,437.767761 90.717667,436.933289 88.179390,437.411621 
	C85.330353,437.948517 83.293549,439.633911 82.621712,442.493683 
	C82.000580,445.137665 83.555626,447.012604 85.591095,448.320648 
	C87.825882,449.756775 90.269859,450.848572 93.646820,451.512604 
M78.142494,423.097656 
	C78.264793,429.826508 84.141045,430.094635 88.383362,432.060059 
	C91.735847,433.613220 93.054657,432.102295 92.471413,428.647400 
	C92.278481,427.504578 91.912453,426.384491 91.794838,425.236664 
	C91.428665,421.663177 89.543228,419.494476 86.057022,418.633789 
	C82.377205,417.725342 79.974297,419.263672 78.142494,423.097656 
M100.923149,256.466370 
	C99.000389,255.286270 96.891327,254.173981 95.288422,256.620544 
	C93.988289,258.604950 93.199791,261.289856 95.525177,262.905823 
	C98.781578,265.168793 101.060707,268.370361 104.165894,271.417206 
	C106.310310,265.602570 105.579384,260.948700 100.923149,256.466370 
M83.213264,304.692261 
	C80.381935,304.418152 79.194191,305.954956 79.316307,308.534607 
	C79.447083,311.296997 81.610725,311.528107 83.662971,311.393585 
	C86.067406,311.235962 88.452774,310.787598 91.726295,310.346893 
	C88.971695,307.627960 86.998192,305.507080 83.213264,304.692261 
z"/>
<path fill="#fff" opacity="1.000000" stroke="none" 
	d="
M300.298431,652.630005 
	C306.854706,654.636902 312.301575,652.570984 317.088959,649.078979 
	C320.965363,646.251404 322.405060,641.887695 321.507538,637.060059 
	C320.431915,631.274597 316.519958,627.478027 311.396027,625.602539 
	C307.552277,624.195679 303.444824,622.686035 298.875153,624.858521 
	C294.857819,626.768311 291.871460,628.373047 293.089294,633.577820 
	C293.768677,636.481079 291.776825,637.964233 289.080811,638.037903 
	C286.487122,638.108826 285.842834,636.188171 285.760681,633.963928 
	C285.703094,632.403809 286.172913,631.003174 286.914307,629.679138 
	C293.758301,617.456421 316.604126,615.717712 325.127747,626.765381 
	C330.782898,634.095154 328.779236,645.131165 320.620514,650.955139 
	C317.949890,652.861572 315.057709,654.457703 312.253082,656.204346 
	C316.663361,661.096863 325.292511,659.811096 327.551117,653.992249 
	C330.305328,646.896545 335.412354,642.639648 342.853668,641.130066 
	C344.905640,640.713745 346.505890,641.483948 347.618988,643.108643 
	C348.552551,644.471375 348.417236,645.966064 347.351318,647.274231 
	C346.078918,648.835815 344.428986,649.780701 342.545013,648.667358 
	C339.051697,646.603027 336.538879,646.723267 334.392059,650.699036 
	C332.522919,654.160400 333.360535,656.852051 335.833954,659.206665 
	C338.701721,661.936890 342.034790,661.325378 344.984772,659.355408 
	C348.047394,657.310242 350.574829,654.600708 352.374664,651.336792 
	C364.547363,629.262146 380.488678,610.217407 399.029541,593.264587 
	C403.993652,588.725647 409.367645,584.869141 416.566742,583.499878 
	C416.267700,587.159424 413.366516,588.931091 411.332916,590.955505 
	C398.894012,603.338440 387.470673,616.480774 379.438385,632.231995 
	C377.530701,635.972961 375.508087,639.748657 374.618317,644.702026 
	C380.716766,642.216858 386.677216,637.878357 391.463257,645.026001 
	C396.013367,651.821350 390.593597,656.796021 387.351044,662.069763 
	C394.115509,662.679871 399.643219,659.211426 401.296906,653.138977 
	C407.986725,628.573425 421.247925,607.568787 436.616302,587.699402 
	C437.585571,586.446289 438.361084,584.705200 440.564697,585.194641 
	C442.249817,587.798767 439.893768,589.151245 438.678314,590.702820 
	C428.284576,603.970886 419.201813,618.012085 412.504425,633.552551 
	C411.341431,636.251160 411.701416,637.812744 413.416565,640.184143 
	C415.918671,643.643677 417.366058,647.847717 419.491669,651.604980 
	C420.728058,653.790466 421.577515,657.119812 425.020844,656.338989 
	C428.644287,655.517212 428.262054,652.663391 427.914124,649.559265 
	C427.120300,642.476685 432.772034,634.095764 438.934082,632.265930 
	C440.857452,631.694702 442.533875,631.671387 444.043518,633.078064 
	C445.161865,634.120117 445.337006,635.387512 444.607788,636.703308 
	C443.642548,638.444946 442.165436,639.261963 440.115143,639.311340 
	C437.625671,639.371399 434.355804,638.091980 433.465424,641.859619 
	C432.554230,645.715271 433.456909,649.111938 437.109772,651.382263 
	C441.436523,654.071472 444.082825,650.935425 446.337555,648.304016 
	C449.187103,644.978394 449.682465,640.478638 450.929352,636.362854 
	C451.865967,633.271240 451.795898,629.314148 456.602173,627.778015 
	C456.659973,632.867981 455.324524,637.313782 455.078217,641.846680 
	C454.421448,653.933533 454.550293,666.106934 452.229919,678.064209 
	C450.728485,685.801208 447.683563,692.984009 444.014801,699.906433 
	C443.371246,701.120728 442.904480,702.821838 440.552185,702.764221 
	C438.869049,700.240540 440.820435,698.170044 441.872009,696.198059 
	C449.121704,682.603149 449.296051,667.776978 449.572235,652.960876 
	C449.576874,652.711365 449.217896,652.455139 448.811523,651.911804 
	C446.276947,653.377319 444.919800,656.248413 442.156158,657.525330 
	C438.977692,658.993835 436.000885,660.140381 432.753418,658.010071 
	C430.600311,656.597778 429.578644,658.216309 428.133240,659.410278 
	C424.891449,662.088074 421.483734,664.675476 416.959930,661.851929 
	C415.245117,660.781616 414.245239,662.214355 413.026947,663.021179 
	C407.873016,666.434326 404.184845,666.352844 399.102997,662.524414 
	C393.389099,667.560608 386.359650,667.977661 379.056305,667.360779 
	C370.599915,666.646484 362.210510,667.854614 353.816254,668.559631 
	C351.188843,668.780273 349.506958,667.985840 348.832886,665.598633 
	C348.027771,662.747437 346.208771,662.681213 344.275818,663.899414 
	C337.935822,667.895020 332.156403,668.468018 327.275024,661.145630 
	C321.835968,665.286621 316.189880,665.834656 310.127960,663.564514 
	C307.610962,662.621887 305.367249,663.872559 303.095001,665.159851 
	C294.740051,669.892944 287.042572,675.896851 277.555969,678.483215 
	C274.266724,679.379883 271.173676,679.875244 267.937805,678.005005 
	C263.986542,675.721436 263.595154,672.767883 265.807373,669.247986 
	C268.103180,665.594910 271.907318,663.956177 275.907318,663.615723 
	C278.353241,663.407593 281.069336,664.981079 281.046600,667.985168 
	C281.019989,671.501160 278.745697,673.195679 275.328064,673.212219 
	C274.985809,672.651672 274.727600,672.400330 274.673218,672.110718 
	C274.397980,670.644775 275.637421,668.460938 273.066345,668.088623 
	C271.630005,667.880615 271.221527,669.283752 270.963135,670.441895 
	C270.473724,672.635254 271.490570,674.201355 273.545685,674.530151 
	C275.649017,674.866760 278.141541,675.246338 279.960968,674.453430 
	C287.813843,671.031189 295.248169,666.792053 303.125092,661.400269 
	C294.407715,656.520569 286.519440,652.965515 276.989105,657.347351 
	C279.099243,650.606750 290.807617,648.504578 300.298431,652.630005 
M380.423431,617.915588 
	C374.573578,624.739929 369.563202,632.181091 364.653564,639.679749 
	C361.386566,644.669495 357.904449,649.598145 355.856567,655.245239 
	C354.955994,657.728577 353.516998,661.163696 357.348450,662.450439 
	C360.565094,663.530640 363.123901,661.937927 364.237640,658.468445 
	C364.946960,656.258972 365.979950,654.149536 366.632812,651.926270 
	C369.933258,640.687134 375.250458,630.456238 381.586884,620.648499 
	C383.296387,618.002441 386.204620,615.781494 386.446899,610.925537 
	C384.072968,613.661865 382.469299,615.510376 380.423431,617.915588 
M381.324036,647.401245 
	C378.291168,647.422668 375.888336,648.911072 373.970428,651.020020 
	C371.532684,653.700745 368.500763,657.154175 369.968048,660.454102 
	C371.245422,663.326843 375.670227,661.360352 378.674164,661.762390 
	C378.991669,661.804932 379.334717,661.721313 379.657043,661.653870 
	C383.462494,660.858154 385.841858,658.484375 386.579071,654.752441 
	C387.303040,651.087280 385.350616,648.795105 381.324036,647.401245 
M413.292023,655.813721 
	C411.887177,652.663513 411.277527,649.007751 407.649017,646.555481 
	C407.086060,649.206177 406.738617,651.324341 406.170624,653.381531 
	C405.598145,655.454956 405.247040,657.531555 407.672241,658.441345 
	C409.891571,659.273926 412.320099,659.619690 413.292023,655.813721 
z"/>
<path fill="#fff" opacity="1.000000" stroke="none" 
	d="
M447.190369,477.406372 
	C436.185394,482.367279 425.478302,482.429321 415.096191,477.139893 
	C405.178314,472.087006 401.498596,462.839172 400.735199,452.444702 
	C399.006409,428.904510 412.928558,416.702393 432.616669,407.322449 
	C421.160767,407.322449 410.933929,407.322449 400.309174,407.322449 
	C399.937134,400.106995 405.681915,398.668945 409.569427,395.956604 
	C412.630890,393.820709 415.358948,394.509155 418.344330,397.328003 
	C423.175079,401.889313 429.956818,402.208374 436.076965,402.485748 
	C448.531433,403.050232 461.031738,402.617645 473.513000,402.561737 
	C475.135254,402.554474 477.154663,401.842621 477.174988,404.482910 
	C477.191040,406.565918 475.670135,407.286865 473.782959,407.295502 
	C467.953186,407.322235 462.117950,407.176758 456.294556,407.378326 
	C443.814331,407.810364 432.736206,411.903290 424.551514,421.602509 
	C414.453583,433.569214 411.021240,447.245728 417.765228,461.912384 
	C422.159363,471.468658 434.413910,478.535919 445.637543,471.731628 
	C455.838745,465.547119 461.684631,455.985809 466.425812,445.599060 
	C470.535431,436.596008 472.155121,426.946289 472.712250,417.108093 
	C472.757782,416.303955 472.684906,415.432129 473.805420,414.720398 
	C478.512329,416.550110 477.960175,421.322418 478.043945,424.760315 
	C478.648834,449.582428 478.124725,474.425659 468.945740,497.944336 
	C464.355865,509.704620 457.435303,519.997375 444.437744,524.559387 
	C431.507416,529.097717 411.875671,523.370972 403.923248,512.348633 
	C402.427490,510.275543 401.473969,508.178772 403.926910,506.250336 
	C409.274750,502.046112 412.443268,496.071503 416.515137,490.843964 
	C417.761719,489.243591 418.912506,488.261810 421.138733,488.222870 
	C421.769775,490.942444 421.135712,493.438477 420.311646,495.957489 
	C417.286469,505.204834 419.422394,512.239197 426.642456,517.013428 
	C433.287170,521.407166 442.568848,520.266418 449.176483,514.316528 
	C454.015381,509.959412 457.130737,504.441925 459.285004,498.472870 
	C462.822784,488.670258 464.281738,478.478455 464.533783,466.943207 
	C458.016357,470.549316 453.601318,475.341003 447.190369,477.406372 
z"/>
<path fill="#fff" opacity="1.000000" stroke="none" 
	d="
M514.061890,544.414917 
	C514.903503,543.625366 515.489258,543.096741 516.532471,542.155334 
	C518.045532,545.779968 516.242981,548.275330 515.118286,550.853699 
	C510.164795,562.208984 506.446747,573.805359 507.103241,586.462585 
	C507.312286,590.493225 507.644440,594.274048 511.647583,596.248352 
	C515.438110,598.117920 517.777649,595.182434 520.002197,592.571350 
	C522.273865,594.598511 521.190308,596.309265 520.376404,597.806641 
	C518.550964,601.164856 516.652527,604.494080 514.583191,607.705933 
	C512.824097,610.436157 513.448853,612.805237 515.309204,615.005920 
	C517.055481,617.071777 519.302307,617.738098 522.029663,617.036011 
	C528.870056,615.275208 531.757019,609.380493 529.693481,602.941956 
	C527.723755,596.796265 527.505432,590.482849 532.131226,585.010254 
	C533.415283,583.491028 534.811218,582.396118 536.853516,583.213806 
	C538.600037,583.913025 539.211365,585.435242 539.214844,587.243652 
	C539.218994,589.386108 538.177795,590.846375 536.087097,591.107300 
	C533.186584,591.469177 531.756836,592.900757 532.375305,595.771667 
	C533.176147,599.489014 535.397034,602.052185 539.307678,602.663879 
	C542.160767,603.110168 543.918884,601.909546 544.954834,599.031982 
	C546.432983,594.926147 545.091248,591.046143 544.229797,587.260498 
	C543.320435,583.264587 544.428528,579.668823 545.074463,575.946472 
	C545.363770,574.279175 546.570068,572.956482 547.886353,571.910767 
	C549.842102,570.356995 552.140686,569.286743 553.974609,571.758911 
	C555.795532,574.213440 554.807129,576.415100 552.412842,578.151367 
	C550.623474,579.448975 546.796814,578.787598 547.613770,582.669250 
	C548.334595,586.094543 550.046570,588.608948 553.830566,589.668396 
	C557.717651,590.756714 560.264038,589.178772 560.694641,584.607788 
	C561.154297,579.729065 559.819153,575.044067 559.097839,570.286316 
	C558.652283,567.347046 557.760376,564.134705 561.640747,561.139038 
	C562.363098,566.621765 563.088684,571.301392 565.348267,575.506897 
	C566.530396,577.707031 567.781433,580.677795 570.731689,579.079407 
	C573.450256,577.606567 575.760925,575.007507 573.608093,571.225525 
	C565.908020,557.698120 559.947449,543.515808 557.291138,528.070740 
	C554.835266,513.791016 553.631287,499.413788 553.722900,484.928680 
	C553.730896,483.664215 553.477783,482.218903 555.136597,481.246460 
	C557.205505,481.704987 557.103455,483.516418 557.092957,485.076691 
	C557.015991,496.404083 557.372498,507.699951 559.262146,518.898804 
	C561.244995,530.650146 564.044678,542.145325 569.837097,553.741577 
	C570.963135,551.209534 571.719910,549.616333 572.387939,547.986816 
	C575.296021,540.892578 583.200012,539.349976 588.409668,544.875610 
	C593.282288,550.043701 593.639893,561.287964 589.098145,566.764954 
	C588.023193,568.061218 586.953247,569.477234 584.945251,568.620544 
	C583.286804,567.913025 582.276001,566.562134 582.049927,564.819153 
	C581.810791,562.975220 582.624756,561.306519 584.453491,560.953491 
	C587.740967,560.318787 589.443420,558.382874 588.473267,555.366821 
	C587.381287,551.971802 585.136536,549.235474 580.909241,549.308899 
	C577.070679,549.375549 575.112610,551.763367 574.388733,555.049622 
	C573.822998,557.618103 573.803589,560.461487 575.084229,562.885376 
	C578.937500,570.178589 582.961853,577.381531 586.827759,584.451904 
	C590.317627,583.138000 584.643066,575.773071 592.084229,577.759338 
	C592.285400,576.679443 590.934387,575.537476 592.435608,574.367676 
	C592.674011,574.341309 593.248474,574.089111 593.599426,574.270203 
	C595.666199,575.336609 597.796143,576.343750 599.671814,577.694397 
	C600.893066,578.573792 603.165649,578.739990 602.859680,581.030273 
	C602.581299,583.114502 600.437012,583.006470 599.076111,583.878479 
	C598.618774,586.226501 602.070740,589.279114 598.275146,590.874573 
	C595.445984,592.063782 594.989319,588.958191 594.019531,587.064392 
	C590.618042,589.324524 590.455872,591.856140 592.025513,594.941956 
	C595.678772,602.123901 597.542480,609.878235 598.876648,617.754700 
	C599.359009,620.602539 600.125854,623.665466 596.765686,627.322632 
	C594.921204,608.687378 587.272461,593.374939 577.534302,578.336060 
	C573.919922,582.802734 572.541382,590.430786 564.739258,585.648254 
	C562.992981,586.294556 563.482849,587.845886 563.214172,589.069092 
	C561.875427,595.163940 559.416321,597.444153 553.344543,597.215393 
	C549.741699,597.079590 548.609497,598.303101 547.906189,601.800354 
	C546.485168,608.865479 541.923279,611.511597 534.959778,609.780884 
	C532.390137,614.380554 530.529175,619.771423 525.422791,622.609070 
	C523.841797,623.487671 522.173340,625.529663 520.584839,624.816101 
	C515.119141,622.361023 513.315491,626.235962 510.445282,629.462830 
	C504.883850,635.715210 497.099640,638.383972 489.488831,641.374878 
	C481.186340,644.637573 472.447418,646.971558 464.904724,652.011658 
	C463.944763,652.653015 463.035919,653.492859 461.740906,652.674500 
	C461.039917,651.937500 461.261353,650.955566 461.707306,650.384766 
	C467.173279,643.389099 464.154968,635.320007 464.397369,627.758667 
	C464.646484,619.986206 464.392395,612.162415 465.815125,604.520203 
	C468.587616,589.627869 473.737305,575.409119 479.414703,561.425293 
	C480.518799,558.705933 480.078613,554.390381 484.751862,553.591980 
	C485.667877,556.577759 484.102142,558.974792 483.072113,561.506958 
	C475.296692,580.621277 468.318542,599.939087 468.320129,620.982361 
	C468.320190,622.104431 468.445496,623.226562 468.609283,625.969604 
	C472.660339,618.562134 477.633270,616.716309 484.122345,620.382996 
	C488.008423,615.402893 491.107208,608.017334 498.865570,611.316650 
	C506.100952,614.393433 504.299072,621.785339 503.754791,628.086243 
	C509.518646,626.495605 510.779419,623.603149 510.492859,618.393372 
	C510.075439,610.805603 508.794373,604.276489 504.658722,597.244080 
	C499.818848,589.014160 502.893555,578.757935 505.236847,569.514648 
	C507.394562,561.003174 510.409851,552.769409 514.061890,544.414917 
M495.490967,633.042297 
	C498.821228,631.379517 499.378540,628.163025 499.603058,625.020935 
	C499.881744,621.121521 497.584991,618.519226 493.943909,617.971191 
	C490.450378,617.445435 488.189240,620.115234 487.599152,623.139160 
	C486.828400,627.089050 486.978271,631.218567 486.727295,635.349060 
	C490.027008,635.635742 492.388336,634.357483 495.490967,633.042297 
M482.618805,632.731323 
	C482.349152,630.664246 481.479095,628.797974 479.795929,627.657959 
	C477.679047,626.224304 475.189209,624.041565 472.878082,627.153625 
	C469.491150,631.714294 468.133820,636.768250 470.164551,642.370483 
	C477.415588,641.198120 481.418030,638.286865 482.618805,632.731323 
z"/>
<path fill="#fff" opacity="1.000000" stroke="none" 
	d="
M118.574234,499.618439 
	C117.434387,496.404968 115.519630,494.810272 112.376770,495.437805 
	C108.716232,496.168671 106.482185,498.752869 105.667694,502.109802 
	C104.981293,504.938812 106.758324,507.131897 109.152328,508.733948 
	C111.925255,510.589569 115.048203,510.909637 118.233047,510.932861 
	C121.910080,510.959686 125.599258,511.107483 129.102478,512.206848 
	C130.768463,512.729614 134.708618,512.273621 132.041107,516.268555 
	C131.915878,516.456116 132.561798,517.354797 133.016312,517.704041 
	C140.748001,523.643921 145.019821,532.300842 150.262756,540.114075 
	C156.600479,549.558838 163.535355,555.274658 176.131210,551.911560 
	C187.082367,548.987610 198.674988,550.855530 209.983475,550.725708 
	C219.974304,550.610962 229.969131,550.801941 239.961563,550.914917 
	C241.529114,550.932617 243.373627,550.453430 244.501495,552.736633 
	C241.884583,554.695007 239.223846,556.410095 235.677643,555.940186 
	C214.028244,553.071289 193.554153,557.627380 172.699524,565.838318 
	C178.966125,568.659241 185.187744,570.899292 182.666183,579.111938 
	C189.279236,580.278809 196.449799,579.849854 197.172241,588.293579 
	C197.627640,593.615906 192.125488,597.892822 183.153366,599.732544 
	C184.690262,601.736328 186.824036,602.499817 188.885681,603.353760 
	C190.767181,604.133179 192.667130,604.867981 195.487152,605.992615 
	C189.352509,608.677185 184.911041,606.343384 180.562256,604.257507 
	C175.368820,601.766602 171.535400,597.532288 167.543488,593.506836 
	C163.215332,589.142273 158.659821,585.003174 154.332458,580.637878 
	C151.917709,578.201965 149.546997,578.129395 146.767471,579.872437 
	C138.146881,585.278198 128.838928,589.261108 119.146591,592.176941 
	C112.784538,594.090820 106.164902,595.298828 99.242661,592.711060 
	C117.496727,591.125000 132.744019,582.389038 148.711273,573.174927 
	C143.253174,569.877258 135.481216,568.131653 140.163254,559.564209 
	C127.897949,553.224792 127.783600,553.053284 129.887650,544.092407 
	C124.730446,542.115051 117.364586,541.862915 117.126289,534.511780 
	C116.840324,525.690002 124.200813,524.636963 132.541245,524.153564 
	C127.524033,520.021973 124.332893,516.100830 118.690590,516.853638 
	C116.874435,517.095947 114.968819,517.877319 114.292511,519.758301 
	C113.498665,521.966125 115.606735,522.915649 116.820557,524.172546 
	C117.481636,524.857117 118.616005,525.096375 118.859619,526.556396 
	C116.070190,528.682434 113.185738,527.510193 111.560059,525.511414 
	C105.382301,517.915894 96.123405,517.910767 87.945183,515.225159 
	C83.055168,513.619385 78.182732,511.913422 73.927299,508.947601 
	C70.844086,506.798706 68.950851,503.707123 70.143776,499.933838 
	C71.260811,496.400696 74.547897,495.597900 77.891228,495.793274 
	C81.896568,496.027374 85.517494,497.191803 86.940857,501.525421 
	C87.531479,503.323700 87.624908,505.297455 85.761307,506.468018 
	C83.270134,508.032776 81.095627,507.207886 79.059021,505.258087 
	C79.366013,504.630127 79.482597,504.126312 79.791069,503.809204 
	C80.808632,502.763306 82.440208,501.879395 81.026466,500.141693 
	C80.074394,498.971466 78.853653,499.560272 77.895668,500.266968 
	C76.391739,501.376343 74.915001,502.539734 76.226219,504.784637 
	C79.003258,509.539124 83.820625,511.338531 88.619194,512.412415 
	C93.167488,513.430298 97.575516,514.830261 102.019180,516.123962 
	C104.965729,516.981750 107.201721,516.708069 108.837952,514.011292 
	C108.596909,512.078552 107.059784,511.743591 105.772324,511.019989 
	C99.391533,507.433899 97.337898,503.552338 98.878998,498.236420 
	C100.219551,493.612213 105.350212,490.692139 111.867989,491.239929 
	C116.781044,491.652802 121.253159,493.375336 124.301369,497.542419 
	C125.561630,499.265259 126.822899,501.159698 125.428627,503.493103 
	C124.527641,505.001038 123.155220,505.471649 121.583138,505.115570 
	C118.850685,504.496643 118.704094,502.241669 118.574234,499.618439 
M180.965118,558.389465 
	C183.933578,557.509644 186.902023,556.629822 190.651230,555.518555 
	C180.802612,554.290283 163.898300,556.843323 151.379822,561.042786 
	C149.194489,561.775818 147.014130,562.572571 146.824615,564.985291 
	C146.623169,567.549927 149.160919,568.237488 150.956055,569.398987 
	C153.225555,570.867371 155.054779,569.740906 156.996201,568.798767 
	C164.601547,565.108154 171.977905,560.894409 180.965118,558.389465 
M178.591339,595.124817 
	C179.551804,595.369324 180.509079,595.808533 181.473282,595.824280 
	C185.433258,595.889038 189.859344,591.883423 189.599014,588.589783 
	C189.320526,585.066162 185.302460,582.472107 180.889297,583.300354 
	C177.320099,583.970215 174.065811,585.564270 170.656525,587.843933 
	C172.298019,589.635559 173.683319,591.246277 175.182022,592.743591 
	C175.985840,593.546631 176.984589,594.154663 178.591339,595.124817 
M158.161819,576.531189 
	C160.421112,579.002686 162.963196,581.153687 166.086349,582.390381 
	C169.398453,583.701904 171.934906,582.128479 173.803894,579.523132 
	C175.344421,577.375732 175.898773,574.985413 173.953644,572.665405 
	C170.394241,568.420166 160.015884,570.546631 158.161819,576.531189 
M136.977875,548.318604 
	C135.883621,551.716919 137.735413,553.674072 140.425583,555.092468 
	C145.455444,557.744568 150.045151,555.483643 155.453720,554.287842 
	C153.029602,551.591675 151.285599,549.618408 149.505432,547.678345 
	C144.331314,542.039429 142.716019,542.046204 136.977875,548.318604 
M131.723007,527.979614 
	C125.679741,530.379944 123.997910,532.560547 125.396866,536.181946 
	C127.113220,540.624878 133.854340,541.716553 141.943985,538.472656 
	C139.390976,534.248535 137.877106,529.462341 131.723007,527.979614 
z"/>
<path fill="#fff" opacity="1.000000" stroke="none" 
	d="
M314.245117,334.143066 
	C312.971680,337.799500 312.525085,341.724609 310.386963,344.171875 
	C307.534729,347.436462 303.921631,343.721497 300.624969,343.306549 
	C285.233704,341.369537 269.791168,341.042603 254.310928,341.290497 
	C248.013489,341.391357 248.117813,341.323853 249.455673,335.408051 
	C250.148438,332.344727 250.715439,329.255402 250.708969,326.038727 
	C250.635788,289.709229 250.590622,253.379349 250.694687,217.050018 
	C250.722198,207.443756 246.167313,201.128448 237.894974,196.929504 
	C236.378601,196.159805 234.440079,195.678406 233.476578,192.688782 
	C239.559631,192.688782 245.269669,192.684753 250.979706,192.689590 
	C264.237976,192.700851 264.240936,192.702591 264.246185,205.888092 
	C264.262146,245.883881 264.275330,285.879669 264.290283,325.875458 
	C264.293457,334.387848 266.637573,336.848633 275.345276,336.669434 
	C287.470520,336.419861 298.980316,333.395660 309.904266,328.165680 
	C311.692780,327.309418 313.330231,326.122101 315.499756,326.264313 
	C317.334747,329.142426 314.719452,331.279205 314.245117,334.143066 
z"/>
<path fill="#fff" opacity="1.000000" stroke="none" 
	d="
M478.432617,343.270294 
	C465.362518,340.037170 457.992310,331.257446 455.035370,319.295410 
	C451.853149,306.422119 453.430115,294.020020 464.209473,284.572113 
	C475.618561,274.572235 488.670105,274.495300 502.052734,279.424561 
	C506.168762,280.940674 506.622772,279.656555 506.762604,276.224945 
	C507.235596,264.617401 506.771729,263.588470 496.153137,255.929504 
	C505.166931,252.931549 512.767029,248.188934 519.855713,243.056122 
	C521.631897,244.241653 521.369568,245.518311 520.930847,246.503922 
	C518.205383,252.627640 518.247620,259.095154 518.264893,265.596405 
	C518.323364,287.593109 518.314575,309.589996 518.343628,331.586792 
	C518.346008,333.404694 518.110901,335.251526 519.012512,336.976990 
	C520.971741,340.726532 519.434143,342.353516 515.592957,342.199493 
	C512.389221,342.071014 508.877930,343.248016 506.262878,340.098755 
	C505.294647,338.932709 503.740112,339.067352 502.565186,339.824005 
	C495.176666,344.582275 486.981476,343.632446 478.432617,343.270294 
M478.743073,336.905060 
	C485.028351,340.653320 491.301727,338.883179 496.629486,335.488495 
	C501.025360,332.687622 506.362610,329.659637 506.505585,323.164093 
	C506.681366,315.176300 506.590454,307.182983 506.695679,299.193146 
	C506.788940,292.108917 503.542755,287.455658 497.213257,284.240570 
	C484.956696,278.014832 474.710510,283.264984 470.303528,293.120026 
	C466.865814,300.807556 466.610535,308.614166 467.333282,316.580841 
	C468.065125,324.647827 471.350311,331.612305 478.743073,336.905060 
z"/>
<path fill="#fff" opacity="1.000000" stroke="none" 
	d="
M315.466187,412.638794 
	C312.681793,408.882996 309.317352,406.271027 304.653992,403.307617 
	C313.631165,402.043182 321.388824,400.823975 329.183746,399.929932 
	C331.514618,399.662598 332.329834,401.620728 331.940735,403.696381 
	C331.049164,408.452026 333.273743,408.052612 336.336426,406.508240 
	C343.991394,402.648163 351.870575,400.393036 360.684570,400.510712 
	C371.515808,400.655334 381.605560,408.849060 385.147736,418.169891 
	C391.366913,434.534851 390.561615,451.473846 387.537689,468.285522 
	C385.736572,478.298859 384.261139,478.805786 373.856842,476.868713 
	C373.705170,476.840485 373.575043,476.696533 373.372345,476.566498 
	C372.751129,474.715637 373.718384,473.038483 374.177460,471.319519 
	C378.063690,456.767609 378.410828,442.137665 374.645630,427.557892 
	C371.937378,417.070953 365.388733,409.997345 354.501526,407.775421 
	C345.554962,405.949585 330.597992,413.298096 331.233948,425.268250 
	C331.772278,435.400055 331.359436,445.583466 331.332428,455.743896 
	C331.313904,462.716278 331.012451,469.716919 334.751251,476.850525 
	C328.180328,476.850525 322.377808,476.850525 316.678131,476.850525 
	C320.708893,458.957031 317.798767,440.837738 318.633148,422.862274 
	C318.802856,419.205658 317.315155,416.053284 315.466187,412.638794 
z"/>
<path fill="#fff" opacity="1.000000" stroke="none" 
	d="
M533.192383,409.669647 
	C526.955811,405.949005 520.726196,405.959320 514.863403,409.068970 
	C510.167114,411.559845 507.797699,415.944153 508.202148,421.536865 
	C508.641235,427.609344 513.804260,432.612579 521.348083,434.739014 
	C527.690491,436.526794 534.091797,438.095490 540.283508,440.476257 
	C550.301392,444.328308 554.709229,449.607819 554.190186,458.051514 
	C553.605896,467.556427 547.361755,474.545685 538.110229,477.311401 
	C530.098694,479.706421 522.008972,479.694214 513.927307,479.124084 
	C505.096130,478.501190 491.725739,470.269379 490.347229,457.472565 
	C490.161835,455.751740 490.138458,454.202972 491.904388,453.872620 
	C497.512360,452.823578 501.787506,448.788605 507.600555,446.881012 
	C506.895691,451.807831 504.409973,455.978821 506.124298,460.802948 
	C508.144073,466.486481 513.940308,472.041626 519.620667,472.715424 
	C528.099060,473.721191 536.502136,470.233154 539.627258,464.410919 
	C542.256165,459.513153 540.696350,453.280701 536.048340,449.134277 
	C530.419983,444.113403 523.170471,443.245331 516.359741,441.444244 
	C511.960114,440.280762 507.754364,438.829620 503.936005,436.491608 
	C492.395477,429.425232 493.499054,412.783844 506.328491,405.280182 
	C517.481262,398.757172 529.531189,398.836456 541.370239,403.272278 
	C546.589172,405.227722 549.198730,410.256744 551.192322,415.304230 
	C551.759094,416.739197 551.953247,418.749054 550.330200,419.303070 
	C544.615295,421.253754 541.772766,426.873474 535.571655,430.828125 
	C538.044067,422.609802 539.499146,415.652832 533.192383,409.669647 
z"/>
<path fill="#fff" opacity="1.000000" stroke="none" 
	d="
M425.190552,310.494629 
	C423.341858,311.690277 421.184021,310.871277 418.691101,313.452850 
	C432.714996,318.642212 439.377380,332.886108 453.060486,338.013855 
	C449.236298,343.056610 442.162354,343.604889 436.607788,339.438660 
	C429.401520,334.033539 423.400116,327.303070 416.588440,321.471039 
	C414.078857,319.322388 411.207214,316.075562 408.011353,317.387604 
	C404.632629,318.774689 406.491180,323.018890 406.374756,325.986542 
	C406.219513,329.943787 405.874939,333.944458 406.981934,337.892639 
	C407.714172,340.504303 406.512878,342.083801 403.717102,342.204681 
	C402.221802,342.269409 400.714813,342.147247 399.226227,342.269165 
	C394.886993,342.624512 394.016113,341.293182 394.218048,336.551086 
	C394.875763,321.107086 394.514160,305.619293 394.525482,290.148376 
	C394.528595,285.885315 390.767212,283.452087 388.871185,279.675354 
	C392.366821,278.293823 395.517944,278.065918 398.305420,279.704102 
	C402.069122,281.915985 405.097015,281.614624 408.792786,279.219086 
	C416.485413,274.232849 425.103180,274.992859 433.357300,277.309601 
	C439.005035,278.894806 443.572815,282.790771 444.051422,289.182037 
	C444.560608,295.981781 441.529083,301.475861 435.673828,305.066803 
	C432.436127,307.052399 428.907837,308.564117 425.190552,310.494629 
M410.743225,309.809998 
	C417.762787,309.011017 423.836029,306.365967 428.359100,300.732330 
	C435.005493,292.454071 430.036987,286.002472 423.115845,282.951660 
	C416.596405,280.077881 406.723206,284.550110 406.392456,290.557373 
	C406.110596,295.677582 406.487976,300.834259 406.577667,305.974701 
	C406.616760,308.215790 407.250092,309.943512 410.743225,309.809998 
z"/>
<path fill="#fff" opacity="1.000000" stroke="none" 
	d="
M342.849213,343.398743 
	C331.661804,339.904968 323.440796,333.471375 320.242706,322.337097 
	C315.238068,304.913086 319.959473,287.764252 336.611633,279.868378 
	C353.514069,271.853821 374.480194,277.326019 381.950256,294.791046 
	C388.760651,310.713776 386.081879,329.885498 369.505096,340.042236 
	C367.014130,341.568481 364.014923,342.807037 361.149719,343.067749 
	C355.214020,343.607880 349.210327,343.401154 342.849213,343.398743 
M368.676300,292.967255 
	C367.523224,290.515900 365.805450,288.470276 363.854492,286.652618 
	C356.618225,279.910919 348.330414,279.590302 340.992737,285.691833 
	C328.774994,295.851288 327.517639,321.420654 338.712646,332.721497 
	C341.503113,335.538330 344.216400,338.176361 348.591003,338.903778 
	C359.647430,340.742249 367.956848,331.741882 370.610413,323.346649 
	C373.786194,313.299164 373.166718,303.354706 368.676300,292.967255 
z"/>
<path fill="#fff" opacity="1.000000" stroke="none" 
	d="
M248.813492,644.267456 
	C246.215790,643.071106 243.814041,642.276489 241.680374,641.024841 
	C239.016617,639.462280 235.938446,639.345947 233.748428,635.964661 
	C229.909729,630.037781 219.234573,630.605164 216.251770,636.038513 
	C215.018570,638.284851 214.925110,640.454712 216.217133,642.671143 
	C218.076065,645.860107 220.300827,645.906311 222.179657,642.758850 
	C222.684769,641.912659 222.862976,640.831421 223.478241,640.099304 
	C224.691467,638.655640 226.398041,638.337952 227.980988,639.305603 
	C229.543030,640.260376 229.421844,641.891846 228.611664,643.290955 
	C226.225327,647.411804 222.455353,649.146851 217.816269,649.289551 
	C213.928070,649.409119 210.653427,647.796082 209.286148,644.341003 
	C207.663071,640.239441 208.876053,636.493347 211.960419,632.907898 
	C216.542725,627.581116 228.144440,626.972107 234.759949,629.900574 
	C237.777008,631.236145 240.740219,632.693359 244.294128,634.361145 
	C264.368622,608.768982 292.069305,595.327637 323.016571,584.655701 
	C321.345917,589.868958 317.637878,590.065918 314.845520,591.049622 
	C295.350281,597.916931 277.414917,607.381958 262.324127,621.745972 
	C261.491211,622.538818 260.805817,623.486572 259.629883,624.852173 
	C265.504242,625.168518 272.525635,622.537109 274.923553,629.780029 
	C277.544220,637.695740 271.978241,641.930054 265.275818,645.056274 
	C270.224548,649.276367 275.592926,646.066772 280.944092,647.224854 
	C279.034882,650.037903 276.784180,651.477661 274.403564,651.138794 
	C264.936890,649.791077 257.509949,655.086670 249.393356,658.219055 
	C243.086563,660.652954 237.078217,664.036743 229.843094,663.407959 
	C226.052002,663.078430 223.734726,661.414001 223.130234,657.966797 
	C222.533737,654.565186 224.065598,651.764221 227.407196,650.368774 
	C229.081345,649.669678 230.852142,649.036316 232.635635,648.801270 
	C235.761353,648.389404 239.152084,648.626221 239.528137,652.574524 
	C239.882858,656.299255 237.172379,657.710815 233.711151,657.714050 
	C233.488495,657.413940 233.203949,657.183655 233.123459,656.896179 
	C232.719299,655.452881 234.416626,653.472351 232.069778,652.546265 
	C231.192627,652.200195 230.405579,652.721680 229.933823,653.446899 
	C228.796341,655.195374 229.832916,656.648193 230.773071,658.018127 
	C232.375290,660.352661 234.475113,661.181763 237.264313,660.111389 
	C244.557800,657.312683 251.631729,654.049561 258.891418,650.279724 
	C256.057343,647.261169 252.324112,646.294128 248.813492,644.267456 
M249.634644,635.910889 
	C251.359955,640.510071 259.380219,644.174438 263.273224,641.808167 
	C266.323853,639.954041 269.813324,637.785339 268.107147,633.216370 
	C266.632263,629.266785 262.202515,628.062073 257.551941,630.029358 
	C254.650223,631.256836 251.770050,632.499512 249.634644,635.910889 
z"/>
<path fill="#fff" opacity="1.000000" stroke="none" 
	d="
M514.393188,173.436829 
	C499.763733,177.327576 485.292999,177.631393 470.623413,176.632736 
	C495.092346,173.663208 519.811646,172.111694 542.940918,159.219116 
	C536.220947,157.231384 528.994080,156.598724 529.825562,148.116486 
	C530.622070,139.990387 537.693054,139.421890 544.292480,138.041672 
	C540.493713,133.098862 534.510437,134.015793 529.504028,131.474380 
	C532.763733,128.935669 535.778442,129.213959 538.209717,130.066116 
	C546.246338,132.882919 554.118408,130.802475 562.064697,130.013565 
	C567.992798,129.425018 573.936096,128.325333 579.874329,129.973007 
	C583.336792,130.933731 586.724670,132.069717 587.207825,136.361328 
	C587.631348,140.123932 585.410828,142.269974 582.211365,143.508682 
	C578.223938,145.052475 574.339539,144.759750 571.064087,141.842667 
	C569.563538,140.506332 569.495056,138.604492 570.618164,136.810181 
	C572.294922,134.131271 574.699890,134.481369 577.104858,135.081955 
	C578.631531,136.921890 575.666321,138.137054 576.910217,140.053574 
	C578.578186,141.445160 579.775757,140.304245 580.470276,138.632385 
	C581.349243,136.516525 580.712402,134.555023 578.617249,133.577866 
	C576.985779,132.816971 575.087402,132.092621 573.351562,132.184219 
	C566.065369,132.568787 558.795654,133.266403 551.104065,133.882706 
	C552.353882,138.504364 555.580750,140.271072 557.861023,142.722443 
	C562.532532,147.744400 568.903381,151.021133 572.285767,157.445343 
	C573.844238,160.405426 577.096924,161.907166 580.231445,163.116257 
	C583.273010,164.289490 585.803772,163.165237 587.935364,161.055969 
	C589.879456,159.132309 590.403809,156.642227 589.517883,154.120316 
	C588.566223,151.411179 586.693054,149.951050 584.523865,152.909958 
	C582.846191,155.198364 580.957581,155.674057 578.492493,155.080063 
	C577.345154,154.803589 576.733643,153.880386 577.100464,152.831924 
	C578.023499,150.194153 579.737061,147.850723 582.613281,147.717880 
	C585.358337,147.591049 588.168762,146.972305 590.991943,148.125443 
	C597.423950,150.752594 599.040405,157.624298 594.218628,162.599960 
	C588.933838,168.053406 580.782349,168.657303 572.521973,164.229675 
	C569.698792,162.716415 567.188599,160.765488 565.142822,158.345337 
	C562.451416,155.161530 559.975647,154.650940 556.160461,157.023514 
	C547.419495,162.459274 538.210632,167.101639 528.287537,170.056976 
	C523.859192,171.375854 519.305786,172.274887 514.393188,173.436829 
M537.265320,148.510696 
	C537.740234,152.054550 539.740417,154.323746 543.261719,154.727905 
	C548.274109,155.303192 552.940674,154.473389 556.809082,150.033264 
	C554.656250,148.004868 552.830627,146.135269 550.850281,144.447327 
	C545.195618,139.627548 540.665649,140.765427 537.265320,148.510696 
z"/>
<path fill="#fff" opacity="1.000000" stroke="none" 
	d="
M38.991051,464.880402 
	C54.945286,472.739197 71.123016,478.920624 88.184502,482.492432 
	C92.024612,483.296326 96.140007,482.788910 100.128853,482.877411 
	C103.205605,482.945709 105.743958,481.808807 107.194389,479.062622 
	C108.764153,476.090546 106.661270,474.068542 104.934456,472.027130 
	C104.426773,471.427002 103.950020,470.800690 103.322487,470.015411 
	C105.033829,468.259064 106.356728,469.104858 107.860214,469.898895 
	C112.023727,472.097748 114.235382,476.103912 117.094536,479.522247 
	C121.761658,485.102112 126.435951,486.067200 130.172623,482.285278 
	C133.831451,478.582092 133.430710,471.614288 129.402649,468.389801 
	C128.055450,467.311371 126.699051,467.106506 125.337059,468.228027 
	C124.443970,468.963409 123.740479,469.936554 122.823174,470.633545 
	C120.635101,472.296143 118.197159,472.029663 116.540298,470.185150 
	C114.746078,468.187683 116.003670,466.162689 117.760185,464.572601 
	C120.851662,461.774048 127.636925,461.803986 132.118378,465.377838 
	C136.274048,468.691925 139.151749,472.651886 139.577698,478.746002 
	C140.104813,486.287292 130.884277,491.694122 123.420815,488.330994 
	C122.215332,487.787811 120.991814,487.180481 119.964264,486.366058 
	C116.777626,483.840393 113.918785,483.147583 110.388657,486.198883 
	C107.627182,488.585754 103.605408,488.078674 100.308990,487.818909 
	C76.919746,485.975586 55.870487,476.656342 35.054733,466.721619 
	C34.697392,466.551086 34.552048,465.936340 34.324844,465.557343 
	C35.443920,463.125885 37.127781,464.471771 38.991051,464.880402 
z"/>
<path fill="#fff" opacity="1.000000" stroke="none" 
	d="
M400.043396,357.118103 
	C399.133423,356.009888 397.806366,355.591705 397.926697,353.804474 
	C400.844238,352.844055 403.011658,350.085693 406.383392,349.424011 
	C407.929565,351.790161 407.089325,354.149872 407.093262,356.390259 
	C407.097229,358.650665 405.940216,361.007416 408.027344,363.215515 
	C410.807098,363.047363 413.750458,362.905762 416.687714,362.683533 
	C421.707184,362.303711 424.356628,365.359131 424.934235,369.598846 
	C425.597778,374.469818 426.179382,379.462189 425.346649,384.454315 
	C425.004272,386.506775 424.440399,388.192902 422.026459,387.794952 
	C419.693695,387.410370 420.169769,385.675659 420.407288,383.899017 
	C420.958984,379.772400 421.440460,375.558685 419.803528,371.564484 
	C418.355103,368.030243 416.209564,364.744690 411.783081,365.502106 
	C407.388153,366.254120 406.969513,369.865936 407.122711,373.637573 
	C407.264587,377.131073 407.099487,380.635925 407.169403,384.133789 
	C407.222290,386.780029 406.224121,388.362396 403.391907,388.109802 
	C400.544769,387.855865 401.395966,385.897552 401.434052,384.030182 
	C401.593445,376.211060 401.583099,368.386932 401.497009,360.566162 
	C401.485199,359.492432 400.698212,358.427246 400.043396,357.118103 
z"/>
<path fill="#fff" opacity="1.000000" stroke="none" 
	d="
M321.746765,360.866882 
	C333.021667,364.063507 337.126648,370.599792 333.724976,379.313080 
	C331.299988,385.524628 326.003021,388.924042 319.833344,388.228271 
	C312.899719,387.446289 307.968689,382.668793 306.981110,375.776154 
	C306.159851,370.044556 309.854767,364.226685 316.013153,361.890381 
	C317.680359,361.257904 319.555817,361.174286 321.746765,360.866882 
M319.354584,364.013977 
	C312.403992,369.625641 311.223541,376.318329 315.956879,382.420746 
	C318.377838,385.541931 321.497986,385.665070 324.307800,383.884186 
	C328.578552,381.177490 329.585205,376.650787 328.392090,372.028564 
	C327.305634,367.819550 325.328705,363.905029 319.354584,364.013977 
z"/>
<path fill="#fff" opacity="1.000000" stroke="none" 
	d="
M286.019318,364.748108 
	C290.147064,361.855011 294.162109,361.766907 297.908234,364.276489 
	C301.113586,366.423828 302.875092,369.702545 302.131134,373.701294 
	C301.280212,378.274597 298.737946,381.440552 293.992798,382.688110 
	C290.037720,383.728058 287.105804,381.973602 284.739868,379.326630 
	C282.133759,376.411041 281.801880,372.762543 283.012848,369.079407 
	C283.527069,367.515381 284.345581,366.043365 286.019318,364.748108 
z"/>
<path fill="#fff" opacity="1.000000" stroke="none" 
	d="
M346.460876,344.847107 
	C350.382416,344.272003 353.473663,344.694672 355.068146,348.444061 
	C354.141022,350.696503 352.168182,351.129150 350.343170,351.736755 
	C348.238037,351.342560 348.967163,348.711761 346.313446,347.712372 
	C340.400146,354.358765 344.550629,362.409790 343.092407,369.913086 
	C346.833374,370.170013 350.086853,369.394867 352.682892,371.567688 
	C352.479065,373.753784 350.768158,373.459808 349.679321,373.284454 
	C343.955750,372.362701 342.776825,375.384644 343.226593,380.202850 
	C343.527802,383.429779 342.791504,386.140076 338.379883,386.650909 
	C335.947113,374.020782 340.364655,360.896912 335.326630,348.360565 
	C339.043488,347.593079 342.829773,347.092926 346.460876,344.847107 
z"/>
<path fill="#fff" opacity="1.000000" stroke="none" 
	d="
M448.602600,386.020935 
	C442.705597,389.384216 437.233856,388.644623 432.645172,384.620605 
	C428.065552,380.604523 426.719696,375.250214 428.693512,369.240753 
	C431.200500,361.608063 442.587677,358.155731 448.477325,363.343567 
	C449.774445,364.486115 450.513855,366.035522 449.998199,367.809723 
	C449.514648,369.473389 447.976959,369.278473 446.686127,369.307709 
	C443.700073,369.375305 440.712494,369.381470 437.725464,369.393555 
	C434.901978,369.404999 433.479218,370.765869 433.333588,373.625397 
	C432.984009,380.489258 440.689270,386.009399 446.878784,383.291840 
	C447.882324,382.851227 448.761963,381.807556 450.107025,382.578674 
	C451.226562,384.192413 449.668518,384.851929 448.602600,386.020935 
z"/>
<path fill="#fff" opacity="1.000000" stroke="none" 
	d="
M398.280090,365.047729 
	C394.310455,365.588257 390.580322,364.754242 387.216980,366.881042 
	C383.474884,369.247314 380.902191,372.108215 381.207733,376.911316 
	C381.549133,382.278137 384.616455,385.005920 389.959137,384.720032 
	C391.687897,384.627502 393.366486,383.040039 395.643250,384.780762 
	C392.443970,388.276886 388.282410,388.470642 384.380035,388.015198 
	C380.061096,387.511139 376.762207,385.140900 375.467072,380.490662 
	C373.690369,374.111237 377.225830,370.136139 382.041107,365.807190 
	C378.533875,365.490997 375.583557,365.225037 372.451416,364.942688 
	C372.166321,360.639557 375.033508,359.974609 377.488739,360.927490 
	C383.782440,363.370026 390.225372,362.435242 396.625580,362.742584 
	C397.720551,362.795197 400.154755,362.189148 398.280090,365.047729 
z"/>
<path fill="#fff" opacity="1.000000" stroke="none" 
	d="
M664.877686,420.753418 
	C666.499878,416.537445 665.401978,412.612793 665.069092,408.339020 
	C668.290161,409.462250 669.071777,411.651703 669.245056,414.211700 
	C669.606812,419.556793 669.415710,424.777863 666.789307,429.705475 
	C665.156738,432.768280 663.829590,436.012817 662.589966,439.261536 
	C660.894287,443.705536 659.460510,448.237518 660.838013,453.255096 
	C656.525635,449.550415 656.215759,445.007538 657.221252,440.027222 
	C658.587524,433.260468 662.628418,427.588745 664.877686,420.753418 
z"/>
<path fill="#fff" opacity="1.000000" stroke="none" 
	d="
M377.273804,685.805664 
	C375.341095,689.505676 375.325256,689.503723 371.859985,685.456726 
	C370.716248,687.972778 371.328064,692.384338 367.422577,692.005493 
	C364.414795,691.713745 366.007294,688.214355 365.764862,686.027710 
	C364.652405,684.479675 362.446533,686.415771 361.369568,684.689697 
	C362.106171,679.083618 365.568298,676.658752 374.612305,675.589355 
	C375.939087,678.701782 376.722992,682.020081 377.273804,685.805664 
z"/>
<path fill="#fff" opacity="1.000000" stroke="none" 
	d="
M532.826416,638.634521 
	C532.717896,639.026428 532.734619,639.191223 532.754822,639.355652 
	C533.006592,641.402649 534.291504,643.931519 531.624023,645.065186 
	C528.451721,646.413391 528.716919,642.766357 526.846497,641.129028 
	C525.619568,640.391785 522.994568,644.895325 521.830688,640.586914 
	C521.195923,638.237000 523.848694,630.197571 525.435547,630.423218 
	C528.099121,630.802002 528.231873,628.190491 530.009033,627.285889 
	C532.146118,629.642944 534.128113,631.811035 536.088684,633.998352 
	C537.129639,635.159668 537.935974,636.427368 536.970337,638.008301 
	C535.834167,639.868347 534.300354,638.326904 532.826416,638.634521 
z"/>
<path fill="#fff" opacity="1.000000" stroke="none" 
	d="
M659.849976,486.941101 
	C655.228027,484.711914 658.998718,490.206543 656.078003,489.965759 
	C651.535339,488.869781 651.139038,484.509430 650.614502,480.679016 
	C650.291504,478.321106 651.948242,475.151520 654.064514,475.001099 
	C657.711487,474.741852 662.417236,472.915466 664.866089,477.578308 
	C664.141418,479.884583 662.097229,479.691742 660.926880,480.722900 
	C662.311401,482.820953 666.428284,483.318207 664.825989,486.870392 
	C663.763000,489.226929 661.760071,487.958191 659.849976,486.941101 
z"/>
<path fill="#fff" opacity="1.000000" stroke="none" 
	d="
M94.278175,226.837601 
	C92.454224,228.309311 91.450096,229.900803 91.931694,232.543030 
	C88.692085,231.937912 85.969994,231.488297 83.277290,230.903412 
	C81.775963,230.577301 80.329193,229.889053 80.217995,228.109314 
	C80.096008,226.156937 81.855774,225.897781 83.285126,225.285141 
	C82.660431,222.760391 78.866928,220.600830 81.543823,217.840118 
	C83.738083,215.577148 85.070686,219.214691 87.112061,219.664490 
	C88.413795,218.839462 88.348816,216.070282 90.932106,216.759323 
	C93.341606,217.402008 93.027695,219.416702 93.333771,221.150665 
	C93.649185,222.937531 93.981140,224.721451 94.278175,226.837601 
z"/>
<path fill="#fff" opacity="1.000000" stroke="none" 
	d="
M326.083862,683.713501 
	C324.735199,682.662476 322.413666,684.090088 321.950562,681.578735 
	C321.577148,679.553528 323.264038,678.800232 324.345642,677.568848 
	C327.389526,674.103638 331.382385,674.694763 335.253235,674.695801 
	C336.162811,674.696045 336.888092,675.367188 336.934265,676.257690 
	C337.118225,679.805603 338.000702,683.416199 336.633331,686.699036 
	C333.923401,687.661316 333.733551,685.109802 332.001160,684.245544 
	C330.848511,686.613770 330.608765,690.796143 326.433838,689.154541 
	C323.501251,688.001465 326.161560,685.737854 326.083862,683.713501 
z"/>
<path fill="#fff" opacity="1.000000" stroke="none" 
	d="
M148.631439,604.669067 
	C147.419708,603.260742 148.124115,601.899719 147.960785,600.525879 
	C145.425720,600.872131 142.667023,604.214294 140.502350,600.863159 
	C138.807297,598.239014 141.908569,597.402771 143.611328,596.116455 
	C143.028473,594.681396 140.889587,594.047485 141.465866,591.998840 
	C145.730301,589.735596 145.804337,589.750488 157.696716,595.570435 
	C153.948624,598.181152 155.067993,604.526245 148.631439,604.669067 
z"/>
<path fill="#fff" opacity="1.000000" stroke="none" 
	d="
M657.075073,275.379639 
	C653.950745,274.083557 658.586243,269.963440 653.944153,269.824127 
	C656.124634,266.231171 659.647034,265.433716 662.094482,263.275787 
	C662.949341,262.522095 664.384705,262.533997 665.343018,263.423187 
	C667.273376,265.214539 665.063477,266.694000 664.770813,268.295288 
	C666.934082,269.608765 671.337769,267.213989 671.342651,271.016968 
	C671.347595,274.894440 667.028320,272.510010 664.662903,273.753082 
	C665.334900,275.377625 668.687378,276.592865 666.466797,278.723938 
	C664.627136,280.489410 662.447571,279.155670 660.636353,277.805084 
	C659.570618,277.010437 658.451782,276.286926 657.075073,275.379639 
z"/>
<path fill="#fff" opacity="1.000000" stroke="none" 
	d="
M497.425659,82.938095 
	C498.672668,84.141815 501.097290,83.990974 500.697571,86.327621 
	C500.383636,88.162926 498.691315,88.641418 497.075409,89.278992 
	C492.876984,90.935486 488.946564,90.926193 485.006348,87.864296 
	C484.598511,85.528381 485.719971,83.020607 486.259277,80.481873 
	C486.588989,78.929756 486.335236,76.213799 489.059082,76.610207 
	C491.879669,77.020699 491.097961,79.495895 490.999817,81.495888 
	C493.435822,79.897308 494.394989,75.116211 498.197693,77.140686 
	C500.848236,78.551788 498.244049,80.850441 497.425659,82.938095 
z"/>
<path fill="#fff" opacity="1.000000" stroke="none" 
	d="
M240.555847,76.642426 
	C240.863800,74.745132 240.322556,72.347160 242.875427,72.722816 
	C246.939926,73.320908 244.386047,77.181740 245.834442,79.446861 
	C247.166748,78.393776 247.923157,75.308723 250.196899,76.984444 
	C252.413361,78.617958 251.219757,80.972946 249.985214,82.768272 
	C248.637573,84.728073 247.515228,89.250748 246.064606,88.261139 
	C242.952011,86.137695 243.344543,89.969574 241.392120,89.736725 
	C238.939911,86.928978 236.068542,84.086136 234.999557,80.311279 
	C236.311768,77.687515 239.728271,79.778976 240.555847,76.642426 
z"/>
<path fill="#fff" opacity="1.000000" stroke="none" 
	d="
M75.412643,277.021484 
	C74.130623,272.938629 74.625549,269.433624 76.626938,266.111664 
	C79.183495,261.868195 81.944176,257.707703 82.560890,252.440109 
	C85.712860,255.877960 86.205139,259.656464 84.034286,263.610565 
	C81.645966,267.960754 78.487564,271.872864 78.127060,277.186707 
	C77.971001,279.486969 76.577911,278.769196 75.412643,277.021484 
z"/>
<path fill="#fff" opacity="1.000000" stroke="none" 
	d="
M617.118286,551.730164 
	C614.794983,547.950195 612.269592,544.558228 615.558594,538.766418 
	C617.283936,545.970642 624.845947,548.996704 623.738220,556.975647 
	C620.153992,556.513367 619.043701,553.887329 617.118286,551.730164 
z"/>
<path fill="#fff" opacity="1.000000" stroke="none" 
	d="
M620.273743,534.829712 
	C622.180542,538.515015 624.171143,541.726257 626.754089,544.538635 
	C628.616760,546.566772 628.743530,548.545715 626.840759,550.582581 
	C622.408142,548.851685 617.432922,541.391663 617.823120,537.068604 
	C617.939209,535.782654 618.007996,534.289185 620.273743,534.829712 
z"/>
<path fill="#fff" opacity="1.000000" stroke="none" 
	d="
M51.551071,358.281860 
	C53.429554,360.172943 56.451958,360.442932 56.845058,363.655731 
	C53.768604,364.280884 51.278053,363.209930 48.890999,361.798218 
	C47.535378,360.996521 45.449554,360.257721 46.641727,358.200348 
	C47.831818,356.146515 49.670212,356.777740 51.551071,358.281860 
z"/>
<path fill="#fff" opacity="1.000000" stroke="none" 
	d="
M73.167046,262.729645 
	C71.535324,260.852661 69.468521,259.913513 68.386826,257.915955 
	C67.788979,256.811951 67.244888,255.788116 68.213066,254.738434 
	C69.292122,253.568558 70.621536,254.236725 71.279961,255.052475 
	C73.041420,257.234802 75.126984,259.446777 75.949913,262.010864 
	C76.724319,264.423798 74.908356,264.257324 73.167046,262.729645 
z"/>
<path fill="#fff" opacity="1.000000" stroke="none" 
	d="
M670.229492,432.716003 
	C672.189697,434.225647 673.914551,435.498779 675.409851,437.000427 
	C676.432312,438.027222 676.580994,439.468445 675.337158,440.483826 
	C674.244446,441.375824 673.084473,440.766907 672.282593,439.877625 
	C670.742310,438.169342 669.089722,436.493225 667.910828,434.545288 
	C666.360535,431.983490 667.690552,431.689667 670.229492,432.716003 
z"/>
<path fill="#fff" opacity="1.000000" stroke="none" 
	d="
M223.925156,610.215576 
	C221.667770,611.559814 219.863312,611.643738 218.505142,609.510010 
	C217.677689,608.210083 217.984192,606.977234 218.879913,605.852173 
	C219.850540,604.632996 221.211029,604.470093 222.446594,605.114441 
	C224.392105,606.128967 225.526459,607.642944 223.925156,610.215576 
z"/>
<path fill="#fff" opacity="1.000000" stroke="none" 
	d="
M54.046753,381.854431 
	C55.283199,382.835083 56.930939,382.963287 56.829956,385.029724 
	C53.362499,386.317780 50.664902,383.993774 47.782463,382.873444 
	C46.585091,382.408051 46.307312,381.049042 46.983391,379.920959 
	C47.679104,378.760132 48.933159,378.661011 50.036678,379.241577 
	C51.338146,379.926239 52.518478,380.841156 54.046753,381.854431 
z"/>
<path fill="#fff" opacity="1.000000" stroke="none" 
	d="
M577.143921,187.652679 
	C576.019714,190.147095 574.454529,190.382080 572.626709,189.154373 
	C571.645691,188.495499 570.861877,187.527161 571.249512,186.249863 
	C571.729309,184.669098 572.951416,183.817459 574.594543,183.874313 
	C576.724548,183.948029 577.319885,185.365005 577.143921,187.652679 
z"/>
</svg>