<?xml version="1.0" standalone="no"?>
<!DOCTYPE svg PUBLIC "-//W3C//DTD SVG 20010904//EN"
 "http://www.w3.org/TR/2001/REC-SVG-20010904/DTD/svg10.dtd">
<svg version="1.0" xmlns="http://www.w3.org/2000/svg"
 width="2400.000000pt" height="2400.000000pt" viewBox="0 0 2400.000000 2400.000000"
 preserveAspectRatio="xMidYMid meet">

<g transform="translate(0.000000,2400.000000) scale(0.100000,-0.100000)"
fill="#fff" stroke="none">
<path d="M12363 22871 c-60 -44 -99 -96 -135 -185 -18 -45 -55 -114 -81 -153
-46 -69 -52 -93 -23 -93 25 0 61 38 100 104 21 36 76 109 121 161 80 91 113
150 101 180 -8 23 -39 18 -83 -14z"/>
<path d="M9820 22837 c-123 -38 -221 -89 -315 -161 -37 -30 -43 -31 -135 -31
-104 0 -163 -18 -276 -86 -67 -40 -224 -186 -281 -261 -99 -128 -170 -286
-294 -651 l-54 -159 -116 -59 c-337 -172 -564 -381 -645 -595 -37 -100 -29
-105 31 -17 69 101 182 216 277 284 72 50 198 119 218 119 6 0 1 -19 -11 -42
-12 -24 -49 -124 -81 -223 -96 -292 -186 -455 -301 -546 -27 -21 -52 -39 -55
-39 -4 0 -19 22 -34 50 -37 67 -97 101 -187 108 -123 8 -220 -46 -236 -132
-28 -149 133 -230 322 -161 37 13 70 22 73 19 3 -3 5 -52 5 -108 0 -101 -1
-104 -43 -190 -71 -142 -219 -274 -421 -376 -320 -160 -598 41 -567 411 17
204 111 402 270 568 112 115 135 130 244 158 117 29 274 103 360 168 81 61
173 168 213 247 31 62 50 160 32 171 -17 11 -113 -132 -113 -167 0 -81 -74
-133 -275 -197 -213 -67 -304 -98 -429 -151 -65 -27 -121 -47 -124 -44 -15 15
90 344 164 515 158 366 363 644 539 731 136 68 274 40 325 -66 22 -45 22 -48
6 -99 -35 -112 -140 -186 -269 -189 -53 -1 -61 2 -83 27 -14 16 -24 41 -24 58
0 26 2 29 19 19 28 -14 86 -12 126 4 70 29 98 124 50 171 -24 25 -42 29 -100
25 -91 -6 -181 -119 -192 -240 -12 -127 69 -190 216 -167 126 19 287 147 330
262 48 125 52 236 11 302 -42 69 -163 99 -280 69 -225 -58 -457 -310 -655
-711 -109 -222 -190 -457 -231 -672 l-17 -88 -71 -45 c-153 -97 -340 -314
-412 -477 l-26 -58 -28 34 c-71 84 -124 92 -202 28 -109 -88 -195 -241 -249
-442 -23 -88 -27 -96 -34 -70 -39 164 -65 235 -88 235 -17 0 -65 -52 -106
-113 -56 -83 -129 -247 -177 -397 -25 -80 -49 -154 -53 -165 -15 -37 -44 196
-39 305 l5 100 -33 -49 c-36 -54 -110 -123 -308 -288 -221 -184 -306 -324
-361 -596 l-6 -28 -32 43 c-26 35 -40 44 -69 46 -31 3 -40 -2 -78 -45 -53 -60
-86 -125 -105 -205 -17 -73 -31 -236 -20 -226 4 4 18 39 31 78 39 115 89 180
140 180 30 0 85 -64 121 -141 34 -70 103 -281 103 -311 0 -11 -10 -42 -21 -69
-39 -89 -84 -75 -253 78 -266 242 -306 262 -342 176 -21 -48 -52 -209 -60
-311 l-7 -80 -38 25 c-80 53 -158 38 -203 -40 -52 -89 -61 -145 -61 -370 l0
-208 -105 213 c-297 599 -364 931 -285 1394 44 253 155 487 294 617 48 45 51
51 51 97 0 29 -5 50 -11 50 -21 0 -125 -116 -166 -185 -113 -192 -214 -505
-259 -800 -22 -146 -22 -397 0 -530 54 -322 204 -672 476 -1110 96 -155 147
-249 166 -310 l12 -40 12 30 c21 53 7 159 -38 276 -61 160 -77 247 -77 429 0
125 4 166 19 213 24 73 65 111 110 102 78 -17 182 -109 227 -203 34 -69 38
-172 9 -240 -32 -74 -46 -82 -64 -39 -29 70 -91 84 -121 27 -42 -80 7 -200 81
-200 94 0 193 191 194 371 0 138 -65 306 -147 378 -47 42 -48 46 -32 155 24
163 92 155 325 -41 57 -49 119 -96 137 -105 67 -37 137 -11 185 67 15 24 30
45 33 45 10 0 80 -258 153 -565 36 -148 101 -414 144 -590 44 -176 96 -405
116 -510 53 -269 46 -243 58 -222 24 44 -62 560 -233 1407 -87 430 -189 791
-300 1060 -49 121 -48 137 11 256 27 55 61 104 105 150 l66 69 -6 -40 c-30
-209 -31 -340 0 -441 17 -58 63 -127 97 -145 130 -70 247 13 342 243 28 68 34
77 40 55 16 -65 148 -861 166 -1002 11 -88 49 -407 85 -710 83 -705 84 -710
101 -693 10 11 8 77 -16 373 -77 956 -137 1459 -256 2170 -52 305 -52 286 12
485 55 169 161 370 195 370 17 0 37 -56 64 -175 15 -66 35 -156 45 -200 66
-278 136 -934 175 -1635 27 -484 81 -1110 140 -1617 14 -117 25 -218 25 -225
0 -7 9 1 19 17 19 30 19 34 -5 280 -57 598 -88 1093 -104 1675 -20 743 -36
929 -116 1335 -58 297 -56 391 12 594 64 192 126 281 194 281 75 0 184 -113
220 -229 39 -123 23 -199 -55 -278 -30 -29 -57 -53 -62 -53 -4 0 -7 20 -5 46
5 56 -16 84 -64 84 -96 0 -132 -143 -54 -212 36 -33 69 -35 127 -9 173 79 261
385 179 624 -30 86 -27 108 37 231 68 132 214 264 391 355 142 72 144 72 72
-23 -80 -105 -138 -202 -181 -303 -166 -394 -101 -768 149 -862 184 -68 421
18 648 237 220 211 324 412 317 610 -3 83 -3 84 26 105 47 32 133 117 171 169
20 26 57 90 84 142 l48 95 26 -40 c90 -135 261 -93 418 103 26 32 48 56 48 52
0 -17 -89 -346 -225 -834 -79 -283 -187 -684 -240 -890 -105 -411 -177 -679
-261 -983 -31 -110 -54 -200 -52 -202 11 -12 28 20 50 95 14 47 92 299 173
560 80 261 180 592 220 735 41 143 114 395 163 560 127 424 143 481 212 750
75 296 164 565 234 712 l54 111 56 21 c282 105 537 320 587 494 l8 28 -32 -21
c-18 -12 -42 -26 -55 -32 -14 -7 -26 -27 -33 -52 -22 -83 -145 -172 -323 -232
-87 -30 -265 -76 -277 -72 -14 5 210 449 279 553 132 202 238 310 430 436 130
86 211 114 317 107 99 -7 170 -45 203 -111 29 -57 24 -89 -24 -145 -65 -76
-167 -92 -270 -41 l-49 24 47 6 c85 13 148 69 148 131 -1 69 -105 101 -188 59
-79 -40 -140 -132 -127 -192 20 -89 163 -161 288 -145 195 26 372 249 328 414
-39 142 -242 210 -441 149z m-540 -371 c0 -3 -29 -43 -65 -90 -110 -146 -268
-433 -394 -716 l-42 -95 -112 -27 c-61 -15 -113 -25 -116 -22 -12 11 115 372
179 510 91 196 260 378 397 429 35 12 153 21 153 11z m-510 -1153 c-21 -54
-55 -152 -76 -218 -38 -118 -39 -120 -114 -196 -120 -123 -202 -138 -284 -53
-70 72 -67 180 11 334 44 88 52 97 97 118 36 18 345 104 397 111 4 1 -10 -43
-31 -96z m-1182 -899 c42 -17 92 -61 92 -81 0 -21 -45 -33 -123 -33 -83 0
-133 21 -157 64 -14 26 -14 28 9 47 29 24 125 26 179 3z m-2319 -1338 l40
-229 -29 -80 c-57 -155 -110 -217 -184 -217 -56 0 -116 42 -145 102 -44 93
-49 204 -15 358 14 61 18 68 72 112 31 26 93 81 137 122 44 40 81 71 83 67 1
-3 20 -109 41 -235z"/>
<path d="M14230 22824 c-225 -48 -571 -197 -770 -330 -163 -109 -337 -261
-463 -403 l-57 -64 -132 0 c-107 0 -158 5 -258 27 -193 41 -309 56 -510 62
-353 12 -669 -48 -942 -179 -103 -50 -251 -145 -313 -201 l-40 -36 126 59
c161 76 332 143 433 171 142 39 326 63 326 41 0 -5 -17 -21 -37 -37 -191 -145
-323 -324 -323 -436 0 -95 70 -168 161 -168 80 0 224 62 359 154 41 28 80 54
86 59 9 5 18 -9 29 -42 19 -58 75 -117 124 -131 78 -22 190 -5 299 45 28 13
52 21 52 17 0 -14 -231 -316 -353 -462 -206 -245 -614 -649 -1067 -1055 -91
-81 -167 -150 -169 -151 -2 -2 7 -4 21 -4 38 0 689 558 996 854 69 67 298 315
510 551 212 237 418 465 456 509 55 60 87 86 141 113 129 66 277 111 305 93
28 -17 -32 -108 -212 -318 -1383 -1618 -1495 -1744 -2057 -2314 -143 -146
-198 -208 -184 -208 13 0 214 194 574 553 472 472 627 634 1048 1099 l493 546
72 18 c90 23 244 23 381 -1 55 -9 195 -41 310 -70 275 -70 342 -79 529 -72
124 4 167 10 241 32 107 31 129 46 49 32 -40 -7 -82 -6 -138 2 -91 13 -196 40
-196 51 0 4 14 13 32 21 39 16 169 100 223 145 42 34 103 51 265 73 213 29
273 24 278 -23 8 -70 -183 -276 -368 -398 -61 -40 -107 -74 -101 -76 5 -2 36
1 68 7 88 16 225 89 323 171 93 79 173 121 326 170 120 39 232 46 275 17 60
-40 62 -121 8 -228 -80 -160 -259 -260 -396 -223 -28 8 -30 24 -4 24 25 0 61
46 61 77 0 32 -60 93 -91 93 -47 0 -107 -39 -128 -84 -25 -51 -25 -59 -6 -100
26 -55 84 -80 196 -84 122 -5 189 9 297 63 142 72 264 186 307 289 8 19 15 60
15 89 0 180 -246 241 -557 137 l-82 -27 60 65 c99 109 92 140 -37 151 l-78 6
75 57 c181 138 409 256 659 340 331 112 587 83 685 -76 39 -63 43 -157 9 -203
-33 -44 -77 -64 -136 -64 -92 0 -153 37 -189 116 -21 45 -23 63 -9 85 7 12 13
11 34 -9 27 -26 103 -39 151 -27 40 10 65 41 65 82 0 134 -258 137 -347 5 -42
-62 -25 -160 41 -238 40 -47 125 -84 210 -90 199 -15 358 98 360 257 0 74 -19
125 -67 178 -84 90 -197 125 -402 125 -287 0 -501 -63 -792 -234 -104 -62
-298 -190 -402 -266 l-73 -55 -172 -29 c-94 -16 -177 -29 -184 -29 -7 0 0 16
18 38 94 118 37 213 -139 232 -69 7 -228 -2 -320 -20 -73 -14 -71 -14 -71 23
0 50 -32 92 -84 112 -86 33 -251 4 -459 -80 -49 -19 -91 -35 -95 -35 -3 0 8
15 25 33 48 51 83 109 83 138 0 84 -223 60 -465 -50 l-70 -32 110 112 c236
239 459 430 656 561 138 91 345 193 443 218 92 23 221 26 269 7 29 -12 37 -11
80 8 52 24 50 33 -12 54 -46 15 -191 13 -271 -5z m-2257 -864 c67 -6 146 -13
174 -16 l53 -5 -74 -50 c-91 -60 -188 -163 -210 -221 -41 -106 -299 -213 -394
-164 -36 18 -72 81 -72 123 0 79 92 195 229 291 85 59 85 59 294 42z m816 -67
c-25 -27 -94 -102 -154 -168 -97 -107 -117 -125 -195 -166 -141 -74 -243 -84
-314 -28 -98 77 -63 203 92 335 l75 64 246 3 c135 1 257 3 271 5 22 2 21 -2
-21 -45z m1012 -131 c36 -40 38 -85 8 -144 -27 -53 -116 -142 -197 -196 l-62
-43 -218 -3 c-167 -2 -231 -7 -276 -20 -32 -9 -60 -15 -62 -13 -2 2 55 66 126
144 112 123 140 147 217 191 78 45 201 100 258 115 11 3 55 5 98 4 75 -2 80
-4 108 -35z m516 -79 c72 -34 76 -106 12 -200 -49 -71 -253 -233 -294 -233
-21 0 -375 89 -393 99 -8 5 2 15 30 31 133 73 276 187 304 241 13 25 75 53
159 72 50 12 149 6 182 -10z"/>
<path d="M12020 22763 c-29 -10 -70 -57 -70 -79 0 -12 7 -39 16 -59 24 -58 0
-144 -62 -218 -30 -36 -30 -47 -1 -47 56 0 142 100 176 202 47 147 23 231 -59
201z"/>
<path d="M12453 22705 c-63 -32 -126 -98 -180 -190 -50 -84 -60 -117 -40 -133
23 -19 44 -4 76 53 34 60 91 110 170 150 95 48 125 97 79 129 -30 22 -46 20
-105 -9z"/>
<path d="M17190 21523 c-187 -17 -275 -28 -395 -49 -514 -88 -887 -255 -1063
-477 -126 -159 -139 -275 -36 -324 l35 -17 -85 -23 c-165 -43 -309 -118 -405
-208 -148 -139 -142 -296 16 -454 159 -158 387 -195 584 -96 140 72 200 191
150 300 -23 51 -96 119 -146 135 -117 39 -285 -51 -285 -153 0 -51 41 -97 86
-97 47 0 87 22 103 56 10 24 10 31 -7 53 -10 14 -30 28 -43 31 l-24 6 28 19
c81 53 185 -27 195 -149 13 -158 -157 -227 -345 -141 -67 30 -161 119 -199
188 -25 45 -29 62 -29 132 0 95 18 139 81 201 109 105 367 178 677 191 136 6
150 8 180 31 l32 24 -85 -6 c-95 -6 -244 5 -309 25 -23 7 -53 23 -66 35 -102
94 124 352 436 498 225 105 647 205 944 225 123 8 320 0 364 -14 11 -3 39 -1
63 5 l43 12 -27 14 c-42 22 -151 34 -298 32 -74 -1 -151 -3 -170 -5z"/>
<path d="M9214 21146 c-101 -44 -78 -186 30 -186 48 0 88 34 100 83 9 36 -17
91 -50 106 -31 14 -41 14 -80 -3z"/>
<path d="M5910 21085 c-17 -21 -40 -103 -40 -145 0 -21 11 -87 25 -148 14 -61
25 -138 25 -171 0 -63 12 -83 36 -59 12 11 15 63 18 253 3 153 0 247 -7 262
-12 26 -39 30 -57 8z"/>
<path d="M6097 21010 c-14 -11 -36 -46 -48 -78 -39 -98 -27 -342 17 -359 29
-11 39 16 39 110 0 87 3 97 43 183 23 50 42 102 42 115 0 50 -47 65 -93 29z"/>
<path d="M16431 20836 l-24 -26 59 0 c32 -1 93 -7 135 -14 190 -34 169 -103
-65 -216 -176 -84 -343 -148 -463 -178 l-105 -26 63 -13 c251 -51 575 -223
889 -474 63 -50 148 -113 188 -140 141 -97 335 -178 495 -209 l57 -11 0 -41
c0 -116 136 -214 373 -269 139 -32 140 -33 66 -53 -35 -10 -399 -129 -809
-266 -681 -227 -775 -256 -1095 -335 -192 -47 -361 -88 -374 -91 l-24 -5 22
-15 c20 -14 38 -11 229 35 114 27 270 64 347 81 386 85 850 212 1685 462 277
83 515 151 527 151 35 0 236 -72 300 -108 43 -24 59 -38 61 -56 6 -47 -48 -74
-274 -136 -130 -35 -148 -37 -279 -38 -77 0 -160 4 -185 8 l-45 7 50 -31 c28
-18 82 -46 120 -62 65 -28 79 -31 185 -31 103 0 130 4 255 39 77 21 154 38
170 38 82 0 306 -122 420 -228 57 -53 63 -51 -85 -20 -89 20 -258 23 -316 7
-50 -14 -100 -48 -127 -84 -24 -33 -33 -114 -17 -161 24 -75 143 -180 297
-263 40 -21 73 -42 73 -45 0 -10 -765 -88 -1375 -139 -544 -46 -1077 -79
-1533 -96 -155 -6 -180 -9 -165 -20 35 -26 322 -19 1498 36 817 39 1327 79
1830 145 l180 23 105 -50 c263 -124 320 -191 231 -271 -22 -19 -88 -68 -148
-108 -165 -109 -193 -141 -193 -219 0 -54 22 -104 71 -162 l40 -48 -83 -2
c-498 -12 -1049 38 -1572 143 -109 21 -201 37 -203 35 -25 -24 266 -95 662
-161 650 -108 850 -127 1320 -130 l380 -2 65 -27 c105 -44 255 -126 289 -157
26 -24 30 -32 22 -48 -13 -24 -48 -36 -186 -61 -266 -49 -806 -76 -1323 -66
-478 9 -786 34 -1057 87 -59 11 -109 18 -111 16 -31 -30 269 -91 656 -131 354
-38 564 -49 1000 -53 l444 -4 59 -77 c36 -47 96 -154 157 -277 106 -215 166
-301 267 -387 54 -46 184 -118 212 -118 7 0 -20 26 -59 57 -83 67 -162 166
-190 242 -12 29 -19 55 -17 57 2 2 56 -14 121 -36 149 -50 246 -70 336 -70 86
0 133 18 160 62 83 136 -98 356 -434 529 l-92 46 81 7 c312 24 250 151 -184
377 l-102 54 38 8 c125 26 163 53 163 114 -1 115 -132 265 -325 372 l-80 44
43 42 c51 52 54 81 11 130 -38 43 -159 124 -294 196 -112 60 -111 63 31 57
l92 -4 -37 46 c-20 25 -104 135 -186 245 -170 228 -211 275 -313 356 -120 97
-262 171 -396 209 l-59 16 69 17 c72 18 117 43 122 70 6 27 -76 94 -171 141
-51 24 -152 64 -224 88 -73 24 -133 46 -133 49 0 7 240 64 375 88 278 49 610
54 810 11 201 -43 371 -113 458 -191 32 -28 50 -36 66 -32 l22 6 -23 24 c-97
105 -345 220 -574 268 -372 77 -601 61 -1339 -97 -187 -40 -191 -40 -288 -29
-160 18 -272 65 -311 131 -40 69 -6 204 67 266 123 104 300 100 407 -11 32
-33 33 -35 11 -35 -46 0 -91 -48 -91 -99 0 -103 149 -137 225 -51 31 35 27
125 -8 179 -98 148 -394 205 -623 120 -76 -29 -166 -92 -200 -140 l-28 -42
-66 6 c-36 3 -91 15 -123 27 -74 28 -188 104 -250 168 l-48 49 153 17 c260 30
362 58 436 121 45 38 64 79 64 137 -1 60 -24 102 -79 144 -70 54 -224 93 -362
94 -47 0 -52 2 -46 18 37 90 20 141 -60 184 -50 27 -50 27 -23 37 108 41 318
94 484 123 104 17 168 22 329 22 185 0 207 -2 299 -27 254 -68 406 -190 406
-327 0 -124 -95 -192 -203 -146 -62 26 -136 130 -121 169 5 14 10 13 37 -4 44
-26 116 -25 151 2 51 40 22 145 -49 175 -47 19 -132 17 -180 -5 -97 -44 -120
-124 -67 -236 67 -141 243 -227 398 -195 154 32 224 106 224 237 0 202 -173
329 -555 409 -110 23 -153 27 -275 26 -225 -1 -510 -46 -860 -133 -172 -43
-210 -49 -325 -53 -71 -2 -141 -7 -155 -11 -15 -4 -5 6 25 25 65 42 105 80
105 100 0 20 -33 52 -75 73 -51 25 -165 46 -290 53 l-120 6 -24 -26z m614
-307 c22 -6 56 -28 77 -49 76 -76 40 -160 -100 -233 -74 -38 -142 -62 -215
-76 -46 -8 -52 -7 -127 36 -97 55 -276 128 -350 144 l-55 12 65 30 c95 43 281
103 390 126 106 22 254 27 315 10z m477 -275 c85 -30 139 -107 118 -169 -13
-38 -62 -85 -120 -115 -59 -30 -202 -69 -300 -81 l-89 -10 -105 84 c-58 47
-123 98 -145 114 -46 32 -51 43 -18 43 39 0 200 37 260 60 31 12 80 37 107 55
28 19 60 36 72 39 39 8 175 -4 220 -20z m1833 -1769 c39 -8 96 -24 128 -36 54
-20 65 -30 133 -118 81 -104 169 -239 162 -247 -3 -2 -98 -14 -211 -25 l-205
-21 -97 46 c-121 57 -188 106 -220 160 -32 54 -32 98 0 152 53 90 159 121 310
89z m823 -1016 c114 -55 192 -143 192 -218 0 -77 -149 -128 -387 -132 -94 -1
-106 1 -147 25 -47 27 -76 68 -76 105 0 43 62 95 285 237 32 20 62 16 133 -17z
m259 -934 c176 -37 316 -109 418 -214 108 -112 111 -163 10 -208 -93 -41 -399
-12 -413 39 -9 38 -72 159 -112 217 -22 33 -70 90 -107 127 l-67 67 101 -6
c56 -4 132 -14 170 -22z"/>
<path d="M5685 20760 c-10 -11 -20 -41 -23 -69 -4 -49 -4 -49 39 -74 24 -15
51 -39 60 -54 21 -35 43 -138 36 -165 -7 -26 2 -48 19 -48 34 0 59 114 44 207
-12 72 -51 167 -82 200 -27 28 -69 30 -93 3z"/>
<path d="M4874 20302 c-20 -13 -33 -48 -39 -109 -7 -54 -3 -72 33 -179 23 -65
44 -141 47 -169 9 -71 14 -85 31 -85 32 0 38 46 20 133 -10 45 -21 143 -25
217 -4 74 -12 144 -18 156 -17 29 -37 44 -49 36z"/>
<path d="M5063 20245 c-54 -37 -76 -184 -48 -311 24 -108 40 -144 64 -144 28
0 35 32 21 91 -15 61 -6 152 21 221 21 55 25 128 7 146 -16 16 -39 15 -65 -3z"/>
<path d="M4675 19937 c-21 -33 -29 -81 -16 -106 7 -11 30 -30 53 -42 23 -12
50 -31 59 -43 22 -26 46 -94 55 -158 7 -50 25 -63 42 -30 43 83 -2 267 -89
367 -38 43 -80 48 -104 12z"/>
<path d="M19150 19775 c-58 -16 -128 -26 -180 -28 -77 -2 -85 -4 -85 -22 0
-39 47 -50 205 -49 129 1 282 15 333 30 28 9 17 45 -21 67 -52 31 -141 31
-252 2z"/>
<path d="M19825 19044 c-53 -9 -108 -12 -162 -8 -79 6 -83 5 -83 -14 0 -27 19
-37 112 -56 84 -17 412 -23 436 -7 24 15 8 45 -37 70 -55 30 -153 36 -266 15z"/>
<path d="M3430 17383 c0 -37 -100 -224 -197 -369 -332 -496 -490 -843 -534
-1171 -13 -96 -7 -316 10 -371 9 -30 8 -33 -7 -27 -94 39 -165 22 -209 -52
-14 -24 -30 -66 -35 -91 -11 -59 4 -203 41 -387 16 -77 27 -141 26 -143 -2 -2
-22 2 -46 8 -81 22 -170 -8 -208 -71 -27 -44 -33 -104 -20 -190 11 -73 62
-235 80 -253 17 -18 9 -22 -45 -22 -174 2 -192 -192 -50 -538 7 -19 5 -18 -29
3 -82 50 -132 45 -143 -14 -14 -76 34 -261 104 -400 25 -51 29 -66 16 -54
-347 286 -602 560 -740 795 -108 184 -155 330 -156 484 0 52 5 114 11 138 11
38 10 47 -5 70 l-18 27 -14 -45 c-22 -66 -20 -247 2 -345 41 -177 133 -377
272 -587 148 -225 460 -539 759 -766 72 -54 99 -83 137 -143 96 -152 135 -301
94 -364 -48 -73 -195 -86 -318 -28 -127 60 -192 145 -186 245 3 57 0 55 70 41
35 -7 68 26 68 69 0 46 -37 116 -71 133 -40 21 -71 4 -106 -59 -25 -46 -28
-60 -28 -141 1 -69 6 -103 23 -145 71 -176 289 -349 454 -358 58 -4 76 0 123
23 140 68 152 201 39 423 -29 57 -48 99 -41 94 160 -124 856 -671 981 -770
201 -159 480 -399 919 -789 174 -156 319 -283 321 -283 2 0 2 9 -1 20 -3 11
-73 82 -157 157 -217 197 -472 431 -691 633 -364 337 -530 480 -965 835 -600
490 -642 527 -687 607 -23 40 -52 96 -64 123 -24 56 -35 162 -20 185 16 24 65
-7 232 -147 178 -149 268 -234 298 -283 l21 -35 0 31 c0 82 -78 211 -176 294
-149 125 -291 331 -313 455 -12 64 2 141 32 173 19 21 29 23 70 19 74 -7 209
-80 284 -152 67 -66 83 -102 83 -192 l0 -52 -45 23 c-54 29 -80 24 -106 -18
-29 -47 -24 -83 14 -121 67 -67 161 -53 201 29 52 107 -1 326 -114 468 -48 61
-134 135 -188 161 -36 18 -49 33 -78 92 -61 126 -64 233 -7 287 21 19 34 23
86 22 183 -5 401 -181 371 -300 l-6 -23 -31 20 c-47 28 -91 25 -117 -8 -25
-32 -22 -68 11 -114 59 -83 150 -75 194 18 69 144 -57 418 -251 545 -35 23
-66 49 -68 58 -19 62 -57 341 -52 373 12 74 51 117 104 117 101 -2 284 -204
391 -430 36 -76 41 -83 48 -61 7 16 3 40 -10 80 -29 81 -34 215 -10 261 42 80
146 104 248 56 150 -69 356 -299 512 -571 57 -98 373 -695 514 -969 85 -166
118 -223 123 -209 4 12 -40 115 -132 308 -461 964 -616 1230 -862 1475 -141
142 -227 188 -342 181 -37 -1 -101 -60 -126 -114 -10 -23 -25 -66 -32 -95
l-12 -53 -34 66 c-37 74 -103 165 -143 197 -26 20 -26 20 -25 166 0 159 17
256 71 427 l29 90 17 -88 c32 -164 81 -279 150 -354 53 -58 106 -83 177 -83
168 0 239 157 196 438 l-12 84 33 -7 c41 -7 102 9 137 36 56 44 96 163 96 284
0 36 4 65 9 65 19 0 225 -442 526 -1125 266 -604 353 -791 653 -1398 172 -349
218 -434 224 -417 6 16 -25 89 -132 311 -322 666 -500 1063 -835 1864 -90 215
-261 620 -380 900 -198 467 -217 517 -226 595 -19 154 -31 220 -40 226 -5 3
-9 -3 -9 -13z m63 -587 c52 -109 56 -122 67 -228 16 -168 -7 -289 -59 -318
-28 -15 -108 -12 -140 4 -71 37 -130 140 -162 286 -30 138 -29 144 54 267 40
59 88 139 107 176 l33 68 22 -69 c12 -39 47 -122 78 -186z m-343 -451 c22 -89
67 -170 119 -217 46 -42 49 -48 60 -115 31 -198 -8 -303 -113 -303 -60 0 -139
42 -181 97 -61 80 -125 272 -125 376 0 46 90 229 189 382 l26 40 6 -105 c4
-58 12 -127 19 -155z"/>
<path d="M20836 16916 c130 -65 236 -182 314 -347 22 -46 69 -176 105 -289
100 -309 120 -356 189 -428 57 -62 145 -92 222 -77 l38 7 -41 18 c-55 24 -115
90 -157 170 -20 37 -62 148 -95 248 -140 425 -302 639 -540 712 -96 30 -111
24 -35 -14z"/>
<path d="M21415 16380 c-13 -21 25 -58 102 -98 93 -48 384 -147 407 -139 45
17 -12 101 -93 136 -27 11 -92 28 -146 36 -97 16 -167 35 -217 61 -32 17 -45
18 -53 4z"/>
<path d="M2029 16059 c-53 -53 7 -227 119 -347 46 -49 65 -63 83 -60 34 5 34
31 0 70 -47 54 -81 130 -96 220 -21 120 -60 163 -106 117z"/>
<path d="M1817 15990 c-6 -25 8 -81 34 -132 10 -20 57 -71 103 -114 47 -42 99
-97 116 -120 57 -80 80 -90 80 -36 0 18 -22 55 -68 113 -37 47 -85 119 -106
160 -63 122 -144 187 -159 129z"/>
<path d="M17800 15994 c1 -38 59 -52 765 -175 253 -44 595 -107 760 -139 441
-87 736 -137 1382 -230 190 -28 208 -32 285 -71 170 -85 309 -199 369 -303 55
-97 33 -194 -56 -240 -58 -31 -230 -30 -296 0 -90 42 -164 131 -184 222 l-7
32 36 -17 c34 -16 38 -16 71 0 39 18 51 48 42 104 -12 71 -85 113 -160 92 -58
-16 -79 -57 -74 -142 13 -200 203 -377 481 -449 87 -23 89 -24 136 -83 227
-286 368 -672 358 -980 l-3 -90 -28 59 c-71 153 -200 330 -318 440 -190 176
-416 269 -574 238 -129 -26 -192 -82 -261 -226 -93 -198 -113 -393 -68 -665
26 -154 68 -252 191 -440 133 -204 333 -325 514 -308 178 16 260 170 198 373
-28 91 -60 144 -119 197 -74 67 -150 83 -226 48 -80 -36 -108 -109 -79 -206
31 -109 101 -145 167 -87 41 38 43 81 3 122 -16 17 -34 30 -41 30 -43 0 -18
54 32 70 32 11 39 10 82 -17 68 -42 105 -108 110 -193 6 -105 -30 -187 -102
-231 -107 -65 -327 47 -461 236 -126 177 -160 327 -136 584 29 293 110 467
253 540 59 30 77 34 141 34 138 -1 248 -53 367 -173 113 -115 255 -356 323
-547 l26 -72 -21 -103 c-32 -154 -32 -410 0 -528 49 -181 120 -328 208 -430
44 -52 164 -163 170 -157 2 1 -9 42 -24 91 -24 79 -30 91 -67 116 -66 46 -122
111 -152 175 -39 85 -43 222 -13 395 39 222 50 321 57 518 3 105 8 192 10 192
8 0 122 -80 213 -151 124 -96 240 -214 373 -379 256 -318 335 -483 325 -675
-7 -128 -66 -216 -167 -245 -67 -19 -129 17 -170 99 -44 87 -33 203 24 257 19
17 43 34 55 37 20 5 21 3 14 -38 -15 -105 66 -191 151 -159 22 9 45 57 45 94
0 46 -23 93 -71 145 -104 113 -228 114 -292 3 -97 -166 -67 -330 86 -475 127
-121 245 -159 337 -111 100 54 157 185 147 337 -3 47 -15 115 -27 151 -108
328 -450 740 -935 1124 l-117 92 -28 110 c-33 130 -64 211 -137 359 -59 119
-192 324 -271 420 l-50 59 49 13 c67 17 102 36 133 73 21 26 26 42 26 88 0
153 -184 379 -448 552 -22 14 -15 15 80 15 165 0 208 32 168 123 -41 92 -286
311 -405 361 -27 11 -26 9 10 -20 83 -68 204 -193 220 -226 20 -42 15 -57 -27
-84 -31 -19 -43 -20 -223 -15 -258 7 -495 37 -1830 237 -450 67 -1260 206
-1309 225 -9 3 -16 2 -16 -2z"/>
<path d="M1842 15624 c-29 -20 -29 -77 -1 -123 19 -32 22 -33 68 -28 33 4 58
0 87 -12 37 -17 101 -79 135 -130 18 -28 39 -21 39 13 0 41 -59 144 -109 188
-50 45 -128 91 -172 101 -15 4 -34 0 -47 -9z"/>
<path d="M22063 15076 c-15 -12 -38 -28 -50 -35 -33 -17 -107 -13 -170 9 -70
24 -73 25 -73 2 0 -41 90 -94 191 -112 72 -13 168 -6 211 16 53 28 45 83 -19
125 -37 25 -56 24 -90 -5z"/>
<path d="M21915 14870 c-14 -22 42 -57 125 -79 47 -12 132 -44 190 -71 122
-56 167 -67 195 -46 18 14 19 17 5 41 -8 15 -40 42 -70 61 -48 29 -73 36 -190
53 -74 11 -155 27 -179 35 -51 19 -67 20 -76 6z"/>
<path d="M21886 14735 c-7 -19 18 -43 52 -51 89 -19 156 -60 217 -131 70 -82
145 -91 145 -17 0 43 -56 108 -127 146 -99 54 -274 87 -287 53z"/>
<path d="M1367 13562 c-42 -46 -4 -136 97 -237 104 -103 216 -155 216 -100 0
9 -12 26 -26 38 -86 72 -117 105 -144 160 -16 33 -30 65 -30 71 0 20 -61 86
-79 86 -10 0 -25 -8 -34 -18z"/>
<path d="M1173 13443 c-9 -22 30 -92 75 -136 20 -20 79 -59 131 -87 51 -28
114 -68 140 -90 49 -42 81 -51 81 -25 0 27 -29 62 -88 103 -31 22 -97 82 -147
132 -49 50 -102 98 -117 106 -36 19 -67 18 -75 -3z"/>
<path d="M1293 13095 c-31 -22 -29 -61 3 -109 28 -41 22 -40 136 -20 44 7 124
-26 180 -75 20 -17 41 -31 47 -31 22 0 10 49 -21 91 -79 103 -284 188 -345
144z"/>
<path d="M19166 12052 c-9 -15 -12 -12 127 -187 215 -271 490 -644 748 -1015
321 -462 340 -488 627 -847 625 -782 625 -781 638 -853 31 -161 26 -310 -10
-310 -49 0 -348 404 -417 563 -13 31 -27 57 -31 57 -16 0 -18 -89 -4 -157 24
-110 62 -195 143 -315 88 -131 114 -181 142 -272 36 -118 25 -212 -32 -265
-59 -54 -191 1 -284 119 -46 59 -83 143 -83 189 0 32 19 91 28 91 4 0 25 -14
46 -30 48 -36 79 -38 111 -5 76 75 -44 233 -159 211 -67 -13 -96 -72 -96 -194
0 -187 84 -380 223 -514 l59 -56 0 -134 c1 -210 -36 -304 -120 -302 -97 3
-265 122 -318 226 -28 56 -31 125 -8 170 l16 31 24 -31 c31 -40 84 -72 118
-72 39 0 76 41 76 85 0 42 -12 69 -49 108 -71 78 -164 75 -224 -5 -35 -47 -47
-92 -47 -172 0 -94 21 -171 76 -283 37 -75 59 -105 111 -153 l66 -60 -6 -123
c-17 -359 -171 -426 -317 -137 -50 100 -119 345 -120 432 -1 18 -5 14 -24 -21
-19 -36 -24 -61 -24 -127 -1 -143 -58 -234 -146 -234 -130 0 -334 191 -418
392 -65 154 -167 638 -235 1116 -20 144 -40 257 -44 250 -8 -15 32 -483 62
-718 37 -294 85 -539 135 -690 122 -363 451 -664 595 -543 33 28 98 151 100
188 0 20 0 20 9 0 4 -11 19 -60 31 -110 13 -49 46 -136 75 -193 50 -100 51
-103 42 -160 -17 -114 -98 -308 -161 -386 l-24 -29 -6 100 c-10 174 -56 324
-122 402 -59 69 -160 90 -242 50 -91 -44 -132 -151 -140 -369 l-6 -146 -48 24
c-38 19 -57 23 -86 17 -78 -14 -141 -117 -164 -268 -22 -137 -19 -139 -97 58
-161 408 -322 880 -432 1270 -345 1227 -481 1684 -493 1657 -7 -15 10 -87 66
-279 103 -350 184 -643 262 -945 37 -139 96 -365 131 -502 142 -543 345 -1201
520 -1678 l56 -153 -6 -95 c-10 -154 -42 -254 -85 -268 -21 -7 -76 63 -119
150 -68 139 -290 775 -401 1148 -63 211 -376 1350 -492 1789 -27 101 -35 120
-42 103 -7 -16 38 -217 187 -829 250 -1027 346 -1374 560 -2030 69 -210 76
-240 76 -312 0 -158 -30 -292 -78 -344 -46 -51 -144 -72 -200 -43 -41 22 -88
75 -117 134 -26 51 -46 138 -39 171 1 9 5 32 9 52 3 20 19 56 36 79 l31 43 18
-41 c20 -44 50 -59 95 -48 103 26 94 216 -11 242 -62 16 -151 -39 -201 -123
-47 -81 -64 -156 -64 -288 0 -135 14 -198 59 -278 28 -49 29 -58 21 -103 -38
-206 -146 -354 -257 -354 -40 0 -100 41 -133 90 -88 131 -96 372 -16 439 15
12 16 10 11 -17 -20 -98 79 -161 147 -93 25 25 29 37 29 83 0 66 -25 115 -71
140 -42 22 -63 22 -114 -1 -155 -70 -229 -362 -151 -595 l26 -77 -30 -92 c-58
-170 -115 -266 -152 -252 -65 25 -138 349 -138 615 l0 75 -50 -90 c-61 -111
-66 -136 -47 -222 34 -146 37 -189 21 -284 -27 -172 -85 -301 -167 -375 -62
-56 -100 -59 -147 -13 -70 70 -114 206 -108 335 2 68 7 87 31 122 32 50 47 53
47 11 0 -32 15 -69 34 -81 6 -4 26 -8 44 -8 85 0 135 158 71 226 -17 18 -33
24 -66 24 -100 0 -201 -96 -260 -247 -23 -59 -27 -82 -26 -178 0 -78 6 -132
20 -184 l20 -75 -58 -116 c-59 -119 -115 -190 -149 -190 -61 0 -104 242 -131
735 -12 225 -7 802 10 1075 6 85 17 308 25 495 9 187 18 383 22 435 l6 95 -26
-24 c-24 -23 -26 -31 -26 -116 0 -123 -25 -562 -50 -860 -41 -506 -62 -890
-59 -1087 2 -112 -1 -118 -91 -208 -97 -97 -203 -161 -372 -226 -221 -84 -457
-226 -597 -360 -80 -76 -161 -188 -161 -222 0 -8 31 15 69 50 61 57 213 149
225 137 2 -2 -16 -48 -40 -102 -121 -269 -130 -453 -24 -525 80 -54 190 -11
323 127 46 48 97 106 112 129 l27 41 24 -28 c82 -98 221 -53 345 112 60 80
156 264 180 344 6 23 15 40 19 38 4 -2 10 -37 13 -77 3 -40 12 -90 18 -111 14
-42 53 -87 77 -87 48 0 156 143 264 348 50 94 56 100 65 79 56 -121 175 -137
285 -38 96 86 157 205 208 405 l28 109 11 -69 c15 -89 29 -132 54 -167 16 -24
25 -28 53 -25 l33 4 7 -63 c14 -132 -23 -421 -77 -607 -57 -192 -175 -399
-281 -491 -109 -94 -233 -125 -311 -76 -109 67 -100 237 17 306 55 32 127 34
156 5 27 -27 26 -32 -14 -54 -92 -49 -120 -133 -63 -182 35 -30 59 -30 123 0
61 28 98 73 114 138 24 94 -36 209 -116 224 -102 19 -256 -42 -324 -127 -73
-92 -102 -227 -72 -335 17 -58 69 -132 115 -162 34 -23 51 -27 111 -27 60 0
82 5 136 32 135 67 261 213 360 418 131 271 197 583 204 961 l3 179 72 175
c40 96 74 177 76 179 2 2 23 -13 46 -33 129 -110 285 -49 397 154 35 63 97
227 107 282 l7 38 46 -28 c100 -58 222 -23 282 81 41 72 76 184 94 309 9 58
16 112 16 119 0 8 10 -5 21 -29 49 -98 121 -139 163 -93 36 40 73 195 92 391
l8 75 13 -55 c12 -47 19 -137 23 -290 1 -34 1 -33 20 19 32 88 78 154 203 294
354 394 567 688 654 906 37 91 77 253 88 358 l7 63 51 -5 c102 -11 168 59 201
214 19 88 35 246 36 344 0 37 2 67 5 67 3 0 17 -7 31 -17 14 -9 45 -16 69 -16
93 0 169 88 201 232 18 80 15 283 -5 349 -5 17 -8 32 -7 32 2 0 20 -7 39 -15
77 -32 137 -9 170 63 18 40 22 66 22 177 0 72 -3 159 -8 195 l-7 64 44 -43
c86 -84 118 -37 118 179 0 110 -14 223 -38 298 -10 31 34 -29 160 -218 212
-315 304 -495 390 -752 63 -190 81 -281 81 -423 0 -109 -3 -125 -27 -178 -26
-54 -28 -87 -6 -87 16 0 56 102 74 190 21 107 15 280 -16 430 -80 391 -319
838 -691 1292 -85 104 -102 131 -119 189 -51 170 -63 227 -64 311 -1 78 1 89
23 112 48 52 176 54 271 6 86 -44 161 -147 175 -242 7 -47 -10 -158 -24 -158
-5 0 -14 6 -20 14 -17 20 -58 28 -82 16 -28 -16 -59 -69 -59 -104 0 -20 12
-40 39 -67 31 -31 46 -39 76 -39 83 0 140 112 140 275 0 113 -27 196 -97 300
-59 89 -120 144 -212 190 -116 59 -232 45 -299 -34 -40 -48 -50 -93 -44 -195
4 -80 32 -190 74 -296 3 -8 -56 59 -133 149 -511 600 -706 839 -852 1043 -231
322 -455 613 -715 931 -230 280 -223 272 -231 259z m824 -5167 c54 -37 98
-102 122 -177 19 -64 24 -173 9 -225 -5 -18 -47 -79 -93 -135 -47 -57 -99
-124 -118 -150 -18 -27 -34 -47 -36 -45 -1 1 -7 43 -13 94 -15 121 -42 207
-86 268 -29 41 -35 58 -35 100 1 121 45 268 87 295 32 19 118 6 163 -25z
m-312 -512 c68 -76 122 -204 122 -294 0 -41 -55 -124 -125 -189 -21 -19 -55
-61 -76 -94 -24 -36 -41 -53 -44 -45 -2 8 -16 46 -30 84 -85 228 -88 240 -93
327 -3 64 0 100 13 141 19 60 65 124 99 137 33 12 86 -15 134 -67z m-2904
-2473 c-21 -312 -113 -543 -252 -631 -55 -35 -88 -37 -132 -6 -94 62 -100 188
-19 383 28 68 33 74 95 110 70 41 178 143 253 238 l46 59 7 -39 c4 -22 5 -73
2 -114z m-505 -324 c-52 -125 -72 -216 -66 -292 4 -56 2 -66 -27 -113 -38 -60
-99 -127 -141 -153 -65 -40 -149 -10 -189 67 -40 79 -14 240 62 380 25 46 35
54 131 102 85 42 236 101 262 103 4 0 -11 -42 -32 -94z"/>
<path d="M1855 10609 c4 -13 18 -47 30 -76 19 -42 31 -55 67 -71 23 -10 60
-38 82 -62 84 -93 118 -233 141 -575 19 -276 45 -495 80 -669 15 -70 24 -130
22 -132 -6 -6 -141 53 -262 114 -392 197 -755 563 -781 789 -9 72 17 155 66
206 37 40 41 42 99 42 69 0 98 -17 146 -84 27 -38 30 -50 30 -118 0 -67 -3
-77 -24 -94 -38 -31 -55 -21 -61 36 -9 80 -37 115 -94 115 -38 0 -55 -10 -71
-41 -46 -89 19 -201 142 -245 115 -41 192 16 211 155 11 75 0 147 -29 209 -33
69 -122 152 -204 193 -62 30 -78 34 -151 34 -75 0 -86 -3 -125 -30 -92 -65
-131 -202 -94 -331 49 -173 234 -412 466 -601 152 -124 472 -314 690 -409 85
-37 85 -37 108 -93 59 -147 191 -347 318 -481 46 -50 63 -75 54 -78 -30 -10
-91 -76 -99 -106 -32 -121 148 -337 409 -491 l93 -55 -45 0 c-66 -1 -166 -24
-189 -45 -30 -27 -24 -58 18 -102 49 -50 193 -153 305 -218 84 -49 102 -65 72
-65 -28 0 -93 -73 -101 -115 -21 -111 84 -272 240 -370 39 -24 83 -48 98 -54
l28 -10 -25 -37 c-65 -96 0 -239 159 -347 62 -42 282 -151 329 -162 31 -8 36
-25 7 -25 -35 0 -126 -40 -150 -65 -21 -23 -22 -27 -9 -51 28 -53 236 -173
408 -235 l65 -23 -33 -8 c-17 -5 -72 -12 -122 -16 l-89 -7 51 -79 c190 -298
428 -544 700 -726 133 -89 326 -186 449 -226 47 -15 89 -31 93 -35 11 -9 -145
-38 -246 -46 -67 -5 -76 -8 -64 -20 7 -8 40 -21 72 -29 112 -30 176 -72 360
-239 319 -290 488 -417 684 -515 152 -76 366 -136 583 -165 l48 -6 -25 -37
c-60 -87 -51 -163 23 -201 63 -32 200 -51 413 -58 l196 -6 -25 -49 c-36 -70
-40 -134 -10 -178 28 -42 77 -76 132 -93 26 -8 104 -12 217 -12 l177 1 -2 -61
c-1 -84 22 -121 99 -160 57 -28 67 -30 175 -29 106 0 228 20 305 50 11 5 4 -6
-17 -25 -50 -44 -80 -94 -76 -128 6 -54 89 -62 273 -26 29 5 28 4 -15 -29
-105 -81 -324 -237 -435 -311 -199 -130 -401 -218 -571 -248 -97 -17 -235 -7
-315 23 -56 21 -69 23 -84 11 -23 -16 -23 -16 55 -41 257 -82 565 -41 865 117
238 125 589 357 817 540 75 61 109 80 194 112 159 60 261 81 374 77 74 -2 105
-8 141 -26 58 -28 74 -62 74 -157 0 -126 -66 -221 -183 -265 -64 -24 -128 -25
-182 -4 -22 9 -40 18 -40 21 0 3 9 16 20 30 31 40 26 79 -12 103 -54 33 -118
23 -170 -28 -56 -53 -26 -155 57 -197 53 -27 203 -27 290 -1 180 53 312 152
376 282 31 62 34 77 34 154 0 74 -3 89 -24 119 -40 56 -98 76 -221 75 -119 -1
-246 -28 -415 -88 -55 -20 -101 -36 -102 -36 -2 0 70 67 160 148 89 82 279
256 422 388 570 523 1358 1214 1687 1479 69 55 83 71 67 73 -28 5 -146 -86
-464 -358 -143 -122 -312 -264 -375 -314 -63 -51 -227 -181 -364 -290 -329
-263 -500 -405 -768 -643 -428 -378 -679 -577 -772 -612 -63 -23 -146 -34
-165 -22 -26 17 7 67 108 163 109 103 242 209 334 265 54 33 59 38 38 41 -38
6 -141 -17 -196 -44 -27 -13 -88 -55 -135 -94 -180 -149 -376 -214 -539 -179
-78 16 -101 40 -101 102 0 71 29 124 110 200 90 85 182 132 246 124 65 -7 74
-21 27 -43 -71 -36 -81 -98 -23 -155 34 -34 66 -37 118 -10 42 22 63 43 86 88
27 54 21 79 -32 132 -72 72 -142 86 -273 52 -160 -41 -282 -107 -383 -205 -44
-43 -55 -49 -115 -58 -74 -11 -169 -3 -217 17 -72 30 -85 107 -36 208 57 115
161 197 251 197 38 0 41 -2 31 -19 -24 -46 7 -119 59 -141 57 -23 134 16 161
80 18 45 -9 111 -58 142 -102 63 -425 -10 -549 -125 l-43 -40 -163 6 c-212 7
-336 40 -346 92 -11 57 86 139 230 195 70 27 220 66 369 97 l45 9 -50 25 c-27
14 -69 27 -92 28 -47 2 -115 23 -151 47 -66 43 -82 150 -36 241 48 97 188 207
359 281 59 25 967 363 1379 513 102 37 116 44 97 53 -14 6 -33 6 -54 -1 -17
-6 -291 -92 -607 -191 -630 -197 -794 -255 -976 -342 -193 -92 -308 -178 -380
-287 -112 -169 -59 -283 159 -343 l58 -16 -96 -18 c-53 -10 -154 -38 -223 -63
-70 -24 -138 -47 -152 -49 -63 -12 -442 108 -550 173 l-45 28 70 2 c268 9 455
79 501 188 58 140 -64 256 -326 309 l-112 23 -1 55 c-2 43 -8 62 -30 92 -57
73 -166 122 -338 151 -51 9 -98 17 -103 19 -6 1 64 29 155 61 90 32 342 123
559 202 217 80 482 176 588 214 336 120 880 289 1325 411 103 29 187 56 187
60 0 14 -22 9 -186 -36 -87 -25 -311 -86 -497 -136 -448 -121 -685 -193 -1391
-425 -325 -106 -724 -236 -886 -289 l-295 -95 -101 34 c-94 31 -275 115 -317
147 -15 11 4 12 123 10 219 -6 336 23 404 99 71 77 67 162 -10 236 -51 49
-176 112 -285 143 l-76 22 5 67 c5 80 -7 110 -69 166 -41 37 -172 105 -203
105 -156 0 802 127 1439 191 504 50 1130 124 1528 180 81 11 100 20 77 34 -5
3 -80 -3 -167 -14 -375 -47 -1180 -120 -1613 -146 -395 -23 -1086 -93 -1551
-155 l-225 -31 -95 32 c-105 35 -238 100 -265 130 -27 30 -9 50 69 76 74 26
241 47 722 93 501 48 831 84 1665 181 889 102 852 97 844 111 -8 12 -20 11
-434 -31 -376 -39 -833 -74 -1365 -106 -231 -14 -510 -33 -620 -42 -110 -8
-208 -15 -217 -15 -10 0 -41 13 -70 27 -135 68 -205 147 -295 335 -163 340
-183 377 -248 457 -73 92 -216 227 -324 308 -74 56 -192 120 -211 113 -6 -2
19 -25 56 -52 83 -62 189 -166 233 -229 18 -27 31 -50 29 -52 -1 -2 -43 16
-93 40 -144 69 -342 125 -442 125 -83 0 -283 135 -311 211 -21 53 20 69 193
76 177 7 1077 -47 1790 -107 646 -55 1387 -110 1483 -110 22 0 32 4 27 9 -6 5
-100 17 -210 26 -383 31 -1134 109 -1545 160 -186 23 -663 68 -1265 119 -306
26 -326 30 -474 112 -82 46 -189 152 -221 219 -45 92 -26 156 58 203 132 74
443 -40 442 -161 -1 -25 -8 -37 -33 -52 -17 -11 -38 -32 -46 -46 -45 -80 115
-170 193 -108 56 44 72 126 39 197 -23 48 -95 118 -180 174 -159 105 -277 147
-433 155 l-105 5 -49 47 c-111 105 -229 293 -285 453 -34 97 -61 219 -61 274
l0 36 68 -89 c204 -263 434 -422 680 -469 245 -47 479 38 557 201 105 222 -5
589 -249 830 -126 125 -271 201 -406 212 -111 9 -185 -27 -237 -115 -26 -43
-28 -55 -28 -152 0 -88 4 -113 23 -155 42 -91 111 -145 186 -145 75 0 113 40
103 106 -10 57 -47 89 -105 89 -26 0 -59 -4 -73 -8 -23 -8 -28 -5 -40 25 -61
146 80 290 253 258 176 -33 333 -203 398 -430 26 -93 37 -264 21 -340 -26
-126 -90 -212 -190 -258 -106 -49 -275 -32 -438 43 -213 98 -405 294 -509 520
-34 74 -37 88 -50 249 -32 394 -80 591 -191 780 -70 121 -200 263 -282 310
l-33 18 7 -23z m1907 -3518 c42 -11 108 -36 147 -55 71 -36 71 -36 117 -129
26 -50 67 -127 91 -170 24 -44 43 -80 41 -82 -2 -2 -40 7 -85 20 -177 52 -359
71 -426 46 -56 -21 -253 132 -277 215 -11 35 -10 46 5 78 32 66 99 95 226 96
53 0 114 -7 161 -19z m376 -495 c35 -8 64 -15 66 -17 1 -2 24 -35 50 -74 92
-133 220 -260 299 -296 15 -7 27 -15 27 -19 0 -4 -78 -14 -173 -23 l-173 -16
-105 23 c-196 45 -339 117 -406 205 -77 99 -20 199 130 231 52 11 201 4 285
-14z m732 -957 c118 -61 179 -133 170 -199 -9 -70 -196 -130 -360 -116 -134
11 -141 15 -220 124 -39 53 -82 116 -95 138 l-25 42 98 12 c53 6 140 18 192
25 147 20 154 19 240 -26z m397 -371 c137 -56 198 -137 157 -208 -77 -129
-370 -170 -525 -71 -45 28 -279 247 -279 261 0 4 30 1 68 -6 37 -7 121 -13
188 -14 134 0 206 16 251 55 31 27 34 27 140 -17z m629 -634 c237 -68 341
-162 273 -248 -49 -62 -193 -109 -340 -110 -94 -1 -98 0 -140 31 -76 56 -232
159 -287 188 -28 16 -51 30 -49 32 2 1 69 21 148 43 79 21 176 50 214 64 39
13 75 25 81 25 7 1 52 -10 100 -25z m584 -340 c80 -26 146 -71 161 -111 7 -18
4 -36 -9 -67 -65 -145 -352 -219 -536 -137 -40 17 -146 98 -236 178 l-44 40
104 7 c182 13 317 48 392 101 38 27 54 26 168 -11z"/>
<path d="M21900 9555 c0 -68 97 -183 197 -233 85 -43 126 -49 152 -23 25 25
26 40 6 89 -22 53 -37 61 -105 55 -51 -5 -65 -2 -104 21 -25 15 -62 47 -83 71
-42 51 -63 57 -63 20z"/>
<path d="M21936 9343 c-20 -20 -1 -58 63 -128 38 -41 95 -113 126 -159 65 -98
117 -149 148 -144 34 5 32 42 -3 115 -27 54 -46 75 -124 138 -51 40 -112 95
-135 122 -46 52 -65 66 -75 56z"/>
<path d="M21842 9238 c-20 -20 -14 -36 32 -83 52 -52 92 -129 106 -204 19
-102 66 -146 111 -105 61 55 -33 254 -172 364 -56 44 -60 45 -77 28z"/>
<path d="M1952 8348 c-7 -7 -12 -26 -12 -44 0 -69 136 -144 297 -165 94 -11
143 -3 143 25 0 20 -25 32 -84 40 -65 8 -145 46 -204 95 -66 56 -116 73 -140
49z"/>
<path d="M1863 8163 c-61 -11 -42 -57 40 -100 47 -25 66 -28 202 -35 83 -4
174 -10 203 -14 44 -5 52 -4 52 9 0 28 -44 47 -141 62 -52 8 -132 27 -179 43
-90 31 -141 41 -177 35z"/>
<path d="M2270 7944 c-130 -21 -180 -46 -180 -88 0 -35 65 -86 109 -86 11 0
35 16 52 35 42 46 86 59 168 51 117 -12 116 -12 116 4 0 18 -58 57 -104 70
-47 12 -129 19 -161 14z"/>
<path d="M2683 7183 c-23 -9 -14 -54 16 -84 32 -31 76 -38 127 -19 24 10 31 7
61 -22 57 -55 99 -128 178 -309 169 -387 248 -501 458 -670 124 -100 226 -152
311 -157 l61 -3 -65 36 c-91 53 -163 110 -250 201 -94 99 -169 211 -255 384
-168 336 -294 520 -399 581 -86 49 -202 79 -243 62z"/>
<path d="M20959 7146 c-12 -27 9 -118 39 -165 55 -87 137 -162 195 -176 53
-14 86 62 55 130 -11 25 -18 28 -91 40 -51 8 -98 53 -138 130 -19 36 -37 65
-42 65 -4 0 -12 -11 -18 -24z"/>
<path d="M20927 6923 c-14 -13 -6 -44 29 -110 62 -115 71 -135 103 -228 35
-99 72 -155 102 -155 28 0 37 34 26 94 -13 75 -27 102 -99 197 -36 47 -80 113
-97 147 -29 57 -47 73 -64 55z"/>
<path d="M20811 6842 c-10 -19 -4 -37 31 -92 27 -41 40 -108 41 -211 2 -80 5
-101 21 -118 25 -27 41 -27 71 4 47 46 29 186 -41 312 -62 112 -101 145 -123
105z"/>
<path d="M2615 6680 c-11 -18 41 -86 92 -121 45 -31 54 -33 172 -41 69 -5 148
-15 175 -23 53 -16 74 -9 62 20 -9 25 -104 63 -186 74 -79 11 -160 35 -225 68
-57 29 -82 35 -90 23z"/>
<path d="M16024 6372 c-5 -4 -32 -117 -57 -252 -75 -384 -167 -789 -317 -1385
-151 -597 -188 -757 -279 -1206 -33 -163 -75 -339 -92 -390 -81 -244 -203
-425 -352 -524 -45 -30 -70 -39 -113 -43 -62 -5 -87 9 -110 65 -28 66 -9 245
36 333 21 40 96 130 109 130 4 0 15 -16 26 -36 22 -41 67 -68 100 -60 33 8 83
70 91 111 9 50 -12 94 -52 111 -80 34 -165 6 -251 -83 -114 -117 -181 -250
-208 -416 -15 -91 -16 -92 -68 -141 -100 -93 -230 -171 -362 -219 -71 -25
-213 -53 -235 -45 -7 2 39 45 102 94 254 205 417 420 463 616 76 324 -161 578
-518 555 -118 -8 -190 -28 -302 -82 -153 -74 -279 -196 -348 -335 -29 -60 -32
-73 -32 -163 0 -83 -3 -98 -17 -103 -25 -8 -166 -101 -223 -147 -27 -23 -93
-83 -146 -135 l-97 -93 -4 65 c-7 113 -63 161 -182 159 -130 -3 -293 -70 -445
-183 l-84 -62 98 189 c221 426 596 1114 753 1383 96 164 275 451 464 744 71
109 127 201 124 203 -13 13 -46 -29 -167 -207 -407 -598 -762 -1173 -1112
-1800 -164 -295 -341 -599 -444 -765 l-50 -80 -119 -6 c-199 -11 -374 -65
-520 -162 -73 -48 -123 -86 -113 -87 31 -1 128 26 144 40 69 62 196 92 395 93
138 0 351 -18 377 -32 30 -16 -197 -278 -367 -424 -183 -157 -328 -246 -485
-298 -101 -34 -258 -34 -332 0 -100 45 -165 145 -143 221 29 100 178 158 286
111 65 -29 94 -58 94 -93 0 -34 -3 -34 -40 -7 -76 57 -223 -39 -191 -124 6
-15 25 -36 43 -47 86 -52 235 6 290 113 73 145 -110 303 -311 269 -273 -46
-449 -347 -301 -515 23 -25 62 -54 92 -68 47 -21 67 -24 173 -24 135 1 191 13
341 77 l91 39 52 -36 c132 -88 277 -80 459 26 33 20 117 93 198 174 142 141
260 287 379 473 l59 92 148 0 c186 0 262 15 435 86 72 29 151 59 175 65 24 6
191 14 378 19 240 5 364 12 438 24 57 10 106 15 108 13 7 -7 -69 -156 -127
-249 -113 -182 -306 -406 -452 -523 -236 -190 -442 -233 -574 -120 -77 65 -76
142 1 213 64 59 134 66 236 26 46 -18 45 -29 -4 -38 -46 -9 -110 -57 -126 -95
-40 -98 108 -161 205 -87 42 32 91 115 100 168 5 27 1 49 -12 75 -56 116 -305
128 -457 24 -85 -59 -147 -168 -148 -261 -2 -87 42 -149 134 -190 195 -86 494
37 773 319 185 187 390 473 510 712 33 64 40 71 98 100 118 59 355 225 411
288 l19 21 23 -58 c43 -104 97 -128 213 -93 136 41 299 178 406 342 83 126 77
119 70 79 -23 -137 -14 -223 25 -235 33 -10 89 25 171 108 126 127 224 266
203 287 -17 17 -39 2 -73 -50 -68 -106 -159 -175 -182 -139 -16 25 -9 191 16
404 42 346 79 538 245 1275 49 217 112 503 139 635 73 355 242 1236 239 1246
-2 5 -8 5 -14 1z m-1991 -2969 c132 -39 229 -114 276 -213 22 -47 26 -68 26
-150 -1 -104 -20 -165 -86 -277 -72 -121 -252 -286 -399 -367 -113 -61 -140
-67 -335 -77 -226 -10 -289 -26 -472 -118 -173 -86 -244 -103 -420 -99 l-123
3 73 91 c239 301 456 523 600 612 84 53 107 58 107 24 0 -32 60 -122 100 -151
85 -61 176 -60 247 2 70 61 92 156 52 226 -51 92 -181 122 -313 72 l-28 -11 4
67 c5 89 28 134 105 210 71 70 208 144 303 162 30 6 64 13 75 15 33 8 152 -4
208 -21z m-500 -507 c43 -17 87 -70 87 -103 0 -61 -65 -81 -139 -43 -64 32
-136 134 -108 152 20 13 126 9 160 -6z m-1026 -307 c82 -51 99 -152 45 -261
-32 -65 -103 -156 -157 -201 l-31 -25 -125 18 c-69 10 -181 24 -250 31 -68 7
-126 14 -128 15 -2 2 17 38 42 81 66 112 196 232 334 309 118 67 199 77 270
33z m-399 -595 c56 -3 102 -10 102 -14 0 -3 -22 -39 -50 -79 -279 -405 -546
-631 -718 -607 -44 6 -133 49 -131 64 0 4 33 28 72 54 142 92 371 318 539 530
33 43 58 66 68 63 8 -2 61 -7 118 -11z"/>
<path d="M6476 3254 c-75 -40 -102 -46 -217 -48 -148 -3 -193 -33 -134 -91 47
-48 194 -29 325 42 76 41 110 70 110 94 0 13 -18 29 -33 29 -1 0 -24 -12 -51
-26z"/>
<path d="M6493 3114 c-49 -25 -135 -62 -192 -80 -151 -50 -207 -96 -157 -129
21 -14 34 -15 82 -6 71 13 113 35 207 105 40 30 100 68 135 85 61 31 77 53 46
65 -25 10 -29 8 -121 -40z"/>
<path d="M6777 3119 c-120 -28 -277 -167 -277 -246 0 -34 41 -57 93 -50 50 7
77 35 77 81 0 61 58 124 153 166 51 23 57 34 28 50 -22 11 -22 11 -74 -1z"/>
<path d="M11439 2723 c-64 -39 -75 -121 -22 -163 69 -54 188 21 167 105 -8 34
-59 75 -92 75 -15 0 -39 -8 -53 -17z"/>
<path d="M15013 2248 c-105 -114 -107 -418 -4 -418 34 0 91 58 91 93 0 12 -14
40 -32 61 -40 49 -49 128 -24 202 28 82 14 110 -31 62z"/>
<path d="M8819 2179 c-56 -52 -119 -84 -191 -98 -112 -20 -162 -57 -138 -101
22 -40 114 -39 198 4 64 32 161 114 196 165 24 34 26 43 16 56 -19 23 -33 19
-81 -26z"/>
<path d="M9178 2140 c-39 -12 -112 -65 -147 -107 -82 -99 -116 -219 -70 -244
27 -14 80 -4 114 23 25 20 26 25 20 74 -8 70 11 112 88 186 70 67 69 90 -5 68z"/>
<path d="M14696 2128 c-9 -12 -16 -32 -16 -44 0 -34 -68 -160 -103 -191 -89
-79 -113 -144 -61 -163 65 -25 157 75 204 219 29 90 33 194 8 199 -9 2 -23 -7
-32 -20z"/>
<path d="M8924 2098 c-16 -12 -54 -45 -85 -74 -30 -28 -82 -69 -115 -89 -110
-69 -129 -84 -148 -115 -24 -41 -15 -60 27 -60 66 0 136 47 223 153 45 53 102
114 128 133 51 40 61 74 22 74 -13 0 -36 -10 -52 -22z"/>
<path d="M14831 2099 c-10 -11 -24 -41 -30 -67 -20 -78 -57 -183 -95 -267 -38
-84 -46 -145 -22 -164 22 -18 48 0 84 56 43 68 50 88 63 209 6 59 20 132 30
162 10 30 19 63 19 74 0 24 -25 23 -49 -3z"/>
</g>
</svg>
